<svg version="1.1" id="agility" xmlns="http://www.w3.org/2000/svg" xmlns:xlink="http://www.w3.org/1999/xlink" x="0px" y="0px"
	 viewBox="0 0 24 24" style="enable-background:new 0 0 24 24;" xml:space="preserve">
<path stroke="none" id="XMLID_20_" d="M12,0C5.4,0,0,5.4,0,12c0,6.6,5.4,12,12,12c6.6,0,12-5.4,12-12C24,5.4,18.6,0,12,0z M1,12C1,5.9,5.9,1,12,1
	s11,4.9,11,11c0,0.2,0,0.3,0,0.5C22.7,7.2,18.3,3,13,3C7.5,3,3,7.5,3,13c0,5.3,4.2,9.7,9.5,10c-0.2,0-0.3,0-0.5,0
	C5.9,23,1,18.1,1,12z M15,20c-2.8,0-5-2.2-5-5s2.2-5,5-5s5,2.2,5,5S17.8,20,15,20z M21,14.5C20.7,11.4,18.1,9,15,9c-3.3,0-6,2.7-6,6
	c0,3.1,2.4,5.7,5.5,6c-0.2,0-0.3,0-0.5,0c-3.9,0-7-3.1-7-7c0-3.9,3.1-7,7-7c3.9,0,7,3.1,7,7C21,14.2,21,14.3,21,14.5z M22,13.5
	C21.7,9.3,18.2,6,14,6c-4.4,0-8,3.6-8,8c0,4.2,3.3,7.7,7.5,8c-0.2,0-0.3,0-0.5,0c-5,0-9-4-9-9c0-5,4-9,9-9c5,0,9,4,9,9
	C22,13.2,22,13.3,22,13.5z"/>
</svg>
