<svg version="1.1" id="assign-to-user" xmlns="http://www.w3.org/2000/svg" xmlns:xlink="http://www.w3.org/1999/xlink" x="0px" y="0px"
	 viewBox="0 0 48 48" style="enable-background:new 0 0 48 48;" xml:space="preserve">
<g>
	<path id="XMLID_614_" stroke="none" d="M25.5,39.5c-4.3-1.6-5-2.7-5-4.8c0-0.5,0.1-0.6,0.4-1c0.4-0.5,1-1.2,1.4-3c0-0.1,0-0.1,0-0.1
		c0,0,0.1-0.1,0.2-0.1c0.8-0.4,1.2-0.9,1.4-2.7c0-0.8-0.3-1.4-0.5-1.7c0.1-0.6,0.3-1.7,0.4-2.6c0.1-1.1-0.2-2.8-1.5-4.3
		c-0.3-0.3-0.7-0.7-1.3-1c0-0.1-0.1-0.2-0.2-0.2c-1.1-0.4-2.2-0.9-3.3-1.2c-0.4-0.1-0.7-0.2-1.1-0.2c-0.7,0-0.6,0.7-1.6,0.1
		c-0.2-0.1-0.5-0.1-0.6,0.2c-0.1,0.2-0.2,0.4-0.4,0.6c-0.1-0.1-0.2-0.2-0.3-0.3c-0.1-0.1-0.1-0.1-0.2-0.2c-0.3-0.2-0.7,0.1-0.6,0.4
		c0,0,0,0,0,0c-0.2,0.2-0.4,0.5-0.5,0.7c-0.6,0.4-1.1,0.8-1.4,1.1c-1.3,1.4-1.6,3.2-1.5,4.3c0.1,0.9,0.3,2,0.4,2.6
		c-0.3,0.3-0.5,0.8-0.5,1.7c0.1,1.8,0.6,2.3,1.4,2.7c0.1,0,0.1,0.1,0.2,0.1c0,0,0,0,0,0.1c0.3,1.8,0.9,2.5,1.4,3
		c0.3,0.4,0.4,0.5,0.4,1c0,2.1-0.7,3.3-5,4.8C0,42.1,0,43.7,0,44.2v4.2h32.7v-4.2C32.7,43.7,32.7,42.1,25.5,39.5z M31.4,47.1h-30
		l0-2.8c0-0.3,1.3-1.6,6.4-3.5c3.9-1.4,5.9-2.8,5.9-6.1c0-1-0.4-1.5-0.8-1.9c-0.4-0.4-0.8-0.9-1.1-2.3c-0.2-0.8-0.6-1.1-0.9-1.2
		c-0.2-0.1-0.5-0.2-0.6-1.5c0-0.6,0.2-0.8,0.2-0.8l0.5-0.2l-0.1-0.5c0,0-0.3-1.6-0.4-2.9c-0.1-0.6,0.1-2.1,1.2-3.2
		c1.1-1.2,2.7-1.7,4.8-1.7c2.1,0,3.7,0.6,4.8,1.7c1.1,1.2,1.3,2.6,1.2,3.2c-0.1,1.2-0.4,2.9-0.4,2.9l-0.1,0.5l0.5,0.2
		c0,0,0.3,0.2,0.3,0.8c-0.1,1.3-0.4,1.5-0.6,1.6c-0.3,0.1-0.8,0.4-0.9,1.2c-0.3,1.4-0.7,1.9-1.1,2.3c-0.4,0.4-0.8,0.9-0.8,1.9
		c0,3.4,2,4.7,5.9,6.1c5.1,1.9,6.3,3.1,6.4,3.4V47.1z"/>
	<path id="XMLID_613_" stroke="none" d="M11.8,38.4c1.5,0.3,2.8,0.9,4.1,1.7c0.5,0.3,0.9-0.4,0.4-0.7c-1.3-0.8-2.7-1.4-4.3-1.8
		C11.5,37.5,11.3,38.3,11.8,38.4L11.8,38.4z"/>
	<path id="XMLID_612_" stroke="none" d="M20.2,37.8c-0.7,0.8-1.9,0.9-2.6,1.6c-0.4,0.4,0.2,1,0.6,0.6c0.7-0.8,2-0.8,2.6-1.6
		C21.1,38,20.6,37.4,20.2,37.8L20.2,37.8z"/>
	<path id="XMLID_602_" stroke="none" d="M16,40.7c0.4-0.3,0.9-0.4,1.4-0.3c0.5,0.1,0.8-0.7,0.2-0.8c-0.7-0.1-1.4,0-2,0.3
		C15.1,40.3,15.6,41,16,40.7L16,40.7z"/>
	<path id="XMLID_601_" stroke="none" d="M16.4,31.2c1-0.3,1.6-0.6,1.6-1.7c0-0.6,0-1.3,0-1.9c0-0.4,0-0.6,0.4-0.8
		c0.3-0.1,0.8-0.1,1.1-0.1c0.5-0.1,0.5-0.9,0-0.8c-0.8,0.1-2,0-2.3,1c-0.1,0.5-0.1,1.1,0,1.6c0,0.3,0,0.6,0,0.9
		c-0.1,0.7-0.3,0.8-1,1C15.7,30.5,15.9,31.3,16.4,31.2L16.4,31.2z"/>
	<path id="XMLID_600_" stroke="none" d="M14.8,25.9c-0.6-0.1-1.1-0.1-1.7,0.1c-0.5,0.2-0.3,1,0.2,0.8c0.4-0.1,0.8-0.2,1.2-0.1
		C15.1,26.8,15.3,26,14.8,25.9L14.8,25.9z"/>
	<path id="XMLID_599_" stroke="none" d="M20.7,31.4c-0.2,0.9-1.1,1.4-1.6,2.1c-0.7,1-2,2.2-3.3,1.4c-0.5-0.3-0.9,0.4-0.4,0.7
		c1.1,0.7,2.5,0.2,3.5-0.6c0.7-0.6,1.2-1.4,1.8-2c0.5-0.5,0.8-0.8,0.9-1.5C21.6,31.1,20.8,30.8,20.7,31.4L20.7,31.4z"/>
	<path id="XMLID_598_" stroke="none" d="M9.9,22.8c2-0.2,2.2-2,3.1-3.5c-0.2,0-0.5,0-0.7,0c0.5,0.7,0.2,1.4,0.7,2
		c0.6,0.8,3.1,1.6,4.1,1.8c2.3,0.7,5,0.7,6.1-1.8c0.2-0.5-0.6-0.7-0.8-0.2c-1.3,3-6,1.1-7.7,0c-1-0.7-0.9-1.3-1.5-2.3
		c-0.2-0.3-0.6-0.3-0.7,0c-0.6,1.1-0.9,2.9-2.4,3.1C9.4,22.1,9.4,22.9,9.9,22.8L9.9,22.8z"/>
</g>
<path stroke="none" d="M45.2,5H27.5V4.1c0-1.5-1.2-3.1-2.7-3.1H18c-1.5,0-2.5,1.5-2.5,3.1v4.1V13v1.5c0,0,0.5-0.1,0.9-0.1
	c0.1,0,0.1,0,0.1,0V13V11h30v16.2c0,0.8-0.5,1.8-1.3,1.8H28.2c-0.1,0-0.2,0-0.3,1h17.4c1.5,0,2.3-1.3,2.3-2.8V8.2
	C47.5,6.7,46.7,5,45.2,5z M46.5,10h-30V8.2V4.1C16.5,3.3,17.2,3,18,3h6.8c0.7,0,1.7,0.3,1.7,1.1v1.4V7h1h17.7c0.7,0,1.3,0.4,1.3,1.1
	V10z"/>
</svg>
