<svg version="1.1" id="budget-icon" class="budget-icon" xmlns="http://www.w3.org/2000/svg" xmlns:xlink="http://www.w3.org/1999/xlink" x="0px" y="0px"
	 viewBox="0 0 16 16" enable-background="new 0 0 16 16" xml:space="preserve">
<path stroke="none" d="M13.2,16H2.8c-1,0-1.8-0.8-1.8-1.8V1.8C1,0.8,1.8,0,2.8,0h10.5c1,0,1.8,0.8,1.8,1.8v12.5C15,15.2,14.2,16,13.2,16z"/>
<path stroke="none" fill="#FFFFFF" d="M12.2,5H3.8c-0.6,0-1-0.4-1-1V2.5c0-0.6,0.4-1,1-1h8.4c0.6,0,1,0.4,1,1V4C13.2,4.6,12.7,5,12.2,5z"/>
<path stroke="none" fill="#FFFFFF" d="M6.7,8.6H3.5c-0.2,0-0.4-0.2-0.4-0.4v0c0-0.2,0.2-0.4,0.4-0.4h3.3c0.2,0,0.4,0.2,0.4,0.4v0
	C7.1,8.4,6.9,8.6,6.7,8.6z"/>
<path stroke="none" fill="#FFFFFF" d="M12.5,8.6H9.3c-0.2,0-0.4-0.2-0.4-0.4v0c0-0.2,0.2-0.4,0.4-0.4h3.3c0.2,0,0.4,0.2,0.4,0.4v0
	C12.9,8.4,12.8,8.6,12.5,8.6z"/>
<path stroke="none" fill="#FFFFFF" d="M12.5,13.1H9.3c-0.2,0-0.4-0.2-0.4-0.4v0c0-0.2,0.2-0.4,0.4-0.4h3.3c0.2,0,0.4,0.2,0.4,0.4v0
	C12.9,12.9,12.8,13.1,12.5,13.1z"/>
<path stroke="none" fill="#FFFFFF" d="M4.7,9.8V6.6c0-0.2,0.2-0.4,0.4-0.4h0c0.2,0,0.4,0.2,0.4,0.4v3.3c0,0.2-0.2,0.4-0.4,0.4h0
	C4.9,10.3,4.7,10.1,4.7,9.8z"/>
<path stroke="none" fill="#FFFFFF" d="M6,14.1l-2.3-2.3c-0.2-0.2-0.2-0.4,0-0.6l0,0c0.2-0.2,0.4-0.2,0.6,0l2.3,2.3c0.2,0.2,0.2,0.4,0,0.6h0
	C6.4,14.3,6.1,14.3,6,14.1z"/>
<path stroke="none" fill="#FFFFFF" d="M3.6,13.5L6,11.2c0.2-0.2,0.4-0.2,0.6,0l0,0c0.2,0.2,0.2,0.4,0,0.6l-2.3,2.3c-0.2,0.2-0.4,0.2-0.6,0h0
	C3.5,13.9,3.5,13.7,3.6,13.5z"/>
<circle stroke="none" fill="#FFFFFF" cx="10.9" cy="11.3" r="0.4"/>
<circle stroke="none" fill="#FFFFFF" cx="10.9" cy="14.2" r="0.4"/>
</svg>
