<svg version="1.1" id="community-support" xmlns="http://www.w3.org/2000/svg" xmlns:xlink="http://www.w3.org/1999/xlink" x="0px" y="0px"
	 viewBox="0 0 28 28" style="enable-background:new 0 0 28 28;" xml:space="preserve">
<path stroke="none" id="XMLID_15_" d="M22.9,0.6c-2.3,0-4.1,1.8-4.1,4.1c0,0.5,0.1,0.9,0.2,1.4l0,0l-5.4,4l-5-3.8C9,5.6,9.2,4.9,9.2,4.1
	C9.2,1.8,7.3,0,5.1,0S1,1.8,1,4.1s1.8,4.1,4.1,4.1c0.8,0,1.6-0.2,2.2-0.7l4.8,3.6L12,11.3V19c-1,0.6-2.7,2.1-2.7,3.9
	c0,2.3,1.8,4.1,4.1,4.1c2.3,0,4.2-1.8,4.2-4.1c0-2.1-1.6-3.8-3.6-4.1v-6.4l0.2-0.4l5.8-4.3c0.7,0.7,1.8,1.2,2.9,1.2
	c2.3,0,4.1-1.8,4.1-4.1S25.2,0.6,22.9,0.6z M5.1,6.4c-1.2,0-2.3-1-2.3-2.3s1-2.3,2.3-2.3s2.3,1,2.3,2.3S6.3,6.4,5.1,6.4z M15.6,22.9
	c0,1.2-1,2.3-2.3,2.3s-2.3-1-2.3-2.3c0-1.2,1-2.3,2.3-2.3S15.6,21.6,15.6,22.9z M22.9,7c-1.2,0-2.3-1-2.3-2.3s1-2.3,2.3-2.3
	c1.2,0,2.3,1,2.3,2.3S24.2,7,22.9,7z"/>
</svg>
