<svg version="1.1" id="defect" xmlns="http://www.w3.org/2000/svg" xmlns:xlink="http://www.w3.org/1999/xlink" x="0px" y="0px"
	 viewBox="0 0 20 20" style="enable-background:new 0 0 20 20;" xml:space="preserve">
<g>
	<path fill="#760000" d="M8,0.3C7.9,0.3,7.9,0.4,8,0.3C7.6,0.8,7.7,1.5,8.1,1.8c1.4,1,1.9,3.1,1,4.6C8.9,6.9,9,7.5,9.5,7.8
		C10,8,10.6,7.9,10.9,7.4c1.3-2.4,0.6-5.6-1.6-7.2C8.9-0.1,8.3-0.1,8,0.3z"/>
</g>
<g>
	<path fill="#760000" d="M0.5,9.6C0.6,9.6,0.6,9.7,0.5,9.6c0.4,0.5,1,0.6,1.5,0.2c1.3-1.1,3.5-1,4.7,0.2c0.4,0.4,1,0.4,1.4,0
		c0.4-0.4,0.4-1,0-1.4c-2-1.9-5.3-2-7.4-0.2C0.3,8.6,0.2,9.2,0.5,9.6z"/>
</g>
<g>
	<path fill="#760000" d="M0.7,4C0.7,4.1,0.7,4.1,0.7,4C0.9,4.7,1.5,5,2,4.8c1.6-0.5,3.6,0.3,4.3,1.9c0.2,0.5,0.8,0.7,1.3,0.5
		c0.5-0.2,0.7-0.8,0.5-1.3C7,3.3,4,2,1.4,2.9C0.9,3,0.6,3.6,0.7,4z"/>
</g>
<g>
	<path fill="#760000" d="M19.4,10.3C19.4,10.3,19.4,10.3,19.4,10.3c-0.4,0.5-1.1,0.5-1.5,0.2c-1.3-1.1-3.5-1.1-4.7,0
		c-0.4,0.4-1,0.3-1.4-0.1c-0.4-0.4-0.3-1,0.1-1.4c2-1.8,5.3-1.8,7.4,0C19.7,9.3,19.7,9.9,19.4,10.3z"/>
</g>
<g>
	<path fill="#760000" d="M12,19.6C12,19.6,11.9,19.6,12,19.6c-0.6-0.3-0.8-0.9-0.5-1.4c0.8-1.5,0.2-3.6-1.2-4.6
		c-0.5-0.3-0.6-0.9-0.3-1.4c0.3-0.5,0.9-0.6,1.4-0.3c2.3,1.5,3.1,4.7,1.9,7.2C13,19.6,12.5,19.8,12,19.6z"/>
</g>
<g>
	<path fill="#760000" d="M17.4,18.2C17.3,18.2,17.3,18.2,17.4,18.2c-0.6-0.1-1.1-0.5-1-1.1c0.2-1.7-1.1-3.5-2.8-3.8
		c-0.5-0.1-0.9-0.7-0.8-1.2c0.1-0.5,0.6-0.9,1.2-0.8c2.7,0.6,4.6,3.3,4.3,6C18.3,17.8,17.9,18.2,17.4,18.2z"/>
</g>
<circle fill="#760000" cx="14.8" cy="4.1" r="3.3"/>
<circle fill="#B60000" cx="10" cy="10" r="8"/>
<circle fill="#D77373" cx="6.7" cy="9.3" r="2.3"/>
<circle fill="#D77373" cx="9.5" cy="5.5" r="1.5"/>
</svg>
