<?xml version="1.0" encoding="utf-8"?>
<!-- Generator: Adobe Illustrator 19.0.0, SVG Export Plug-In . SVG Version: 6.00 Build 0)  -->
<svg version="1.1" id="Layer_8" xmlns="http://www.w3.org/2000/svg" xmlns:xlink="http://www.w3.org/1999/xlink" x="0px" y="0px"
	 viewBox="-8 100.1 593.9 593.9" enable-background="new -8 100.1 593.9 593.9" xml:space="preserve">
<g id="gs-team-graphic">
	<circle id="XMLID_19_" fill="#E6E6E6" cx="288.5" cy="396.9" r="65.8"/>
</g>
<g id="XMLID_410_">
	<path id="XMLID_411_" d="M257.1,407v-11.6h4.6c2.3,0,3.6,1.6,3.6,3.5s-1.3,3.5-3.6,3.5h-3.2v4.6H257.1z M263.8,398.9
		c0-1.3-0.9-2.2-2.3-2.2h-3v4.4h3C262.9,401.1,263.8,400.2,263.8,398.9z"/>
	<path id="XMLID_414_" d="M267.2,407v-8.4h1.3v1.4c0.7-0.9,1.6-1.5,2.8-1.5v1.3c-0.2,0-0.3-0.1-0.5-0.1c-0.8,0-1.9,0.7-2.3,1.3v5.9
		h-1.3V407z"/>
	<path id="XMLID_416_" d="M272.4,402.8c0-2.4,1.6-4.4,4.1-4.4s4.1,2,4.1,4.4s-1.6,4.4-4.1,4.4S272.4,405.2,272.4,402.8z
		 M279.3,402.8c0-1.7-1-3.2-2.8-3.2s-2.8,1.5-2.8,3.2s1,3.2,2.8,3.2S279.3,404.5,279.3,402.8z"/>
	<path id="XMLID_419_" d="M282.3,402.8c0-2.5,1.7-4.4,4.2-4.4c1.5,0,2.4,0.6,3.1,1.5l-0.9,0.8c-0.6-0.8-1.3-1.1-2.1-1.1
		c-1.8,0-2.9,1.4-2.9,3.2s1.1,3.2,2.9,3.2c0.9,0,1.6-0.3,2.1-1.1l0.9,0.8c-0.6,0.8-1.5,1.5-3.1,1.5
		C284,407.2,282.3,405.3,282.3,402.8z"/>
	<path id="XMLID_421_" d="M290.9,402.8c0-2.4,1.7-4.4,4.1-4.4c2.5,0,4,2,4,4.5v0.3h-6.8c0.1,1.6,1.2,2.9,3,2.9c1,0,1.9-0.4,2.6-1.1
		l0.6,0.8c-0.8,0.8-2,1.3-3.3,1.3C292.7,407.2,290.9,405.4,290.9,402.8z M295,399.5c-1.8,0-2.7,1.5-2.7,2.8h5.5
		C297.8,401,296.9,399.5,295,399.5z"/>
	<path id="XMLID_424_" d="M300.4,405.9l0.7-0.9c0.6,0.6,1.6,1.2,2.8,1.2c1.3,0,2-0.6,2-1.4c0-0.9-1-1.2-2.1-1.4
		c-1.4-0.3-3-0.7-3-2.4c0-1.3,1.1-2.4,3.1-2.4c1.4,0,2.4,0.5,3.1,1.2l-0.6,0.9c-0.5-0.6-1.4-1.1-2.5-1.1s-1.9,0.6-1.9,1.3
		c0,0.8,1,1,2,1.3c1.5,0.3,3.1,0.7,3.1,2.6c0,1.4-1.1,2.5-3.3,2.5C302.4,407.2,301.3,406.8,300.4,405.9z"/>
	<path id="XMLID_426_" d="M308.5,405.9l0.7-0.9c0.6,0.6,1.6,1.2,2.8,1.2c1.3,0,2-0.6,2-1.4c0-0.9-1-1.2-2.1-1.4
		c-1.4-0.3-3-0.7-3-2.4c0-1.3,1.1-2.4,3.1-2.4c1.4,0,2.4,0.5,3.1,1.2l-0.6,0.9c-0.5-0.6-1.4-1.1-2.5-1.1s-1.9,0.6-1.9,1.3
		c0,0.8,1,1,2,1.3c1.5,0.3,3.1,0.7,3.1,2.6c0,1.4-1.1,2.5-3.3,2.5C310.5,407.2,309.3,406.8,308.5,405.9z"/>
	<path id="XMLID_428_" d="M271.4,427.8v-11.6h7.6v1.3h-6.1v3.7h6v1.3h-6v5.3L271.4,427.8L271.4,427.8z"/>
	<path id="XMLID_430_" d="M280.9,427.8v-11.6h1.3v11.6H280.9z"/>
	<path id="XMLID_432_" d="M284.3,423.6c0-2.4,1.6-4.4,4.1-4.4s4.1,2,4.1,4.4s-1.6,4.4-4.1,4.4S284.3,426,284.3,423.6z M291.2,423.6
		c0-1.7-1-3.2-2.8-3.2s-2.8,1.5-2.8,3.2s1,3.2,2.8,3.2S291.2,425.3,291.2,423.6z"/>
	<path id="XMLID_435_" d="M301.9,427.8l-2.2-6.7l-2.2,6.7h-1.3l-2.7-8.4h1.4l2,6.7l2.2-6.7h1.1l2.2,6.7l2-6.7h1.4l-2.7,8.4H301.9z"
		/>
</g>
<g id="XMLID_24_">
	<g id="XMLID_26_">
		
			<linearGradient id="XMLID_7_" gradientUnits="userSpaceOnUse" x1="294.85" y1="433.8791" x2="294.85" y2="406.9589" gradientTransform="matrix(1 0 0 -1 0 796.2)">
			<stop  offset="0" style="stop-color:#FFFFFF"/>
			<stop  offset="0.9944" style="stop-color:#000000"/>
		</linearGradient>
		<path id="XMLID_27_" fill="url(#XMLID_7_)" d="M293.1,370.2h-4l4.9-8.1h13.6l-15.9,26.4h-9.6L293.1,370.2z"/>
	</g>
	<path id="XMLID_25_" fill="#802245" d="M291.7,388.5c-3.2,0-6.4,0-9.6,0c2.6-5.1,1-12.3-3.6-18.6c-1.3,0-2.7,0-4,0
		c-2.1-2.8-4.7-5.5-7.9-7.8c4.5,0,9.1,0,13.6,0C290.4,369.5,295.5,381,291.7,388.5z"/>
</g>
<g id="Layer_1">
	<g id="XMLID_10_">
		<path id="XMLID_11_" fill="#CBDB7C" d="M288.7,158.6c131.2,0,237.7,106,238.5,237h58.3c-0.8-163-133.2-295-296.4-295
			c-0.2,0-0.5,0-0.7,0v58C288.4,158.6,288.5,158.6,288.7,158.6z"/>
		<path id="XMLID_12_" fill="#8ED3D4" d="M288.2,158.6v-58C125.3,101-6.7,232.8-7.5,395.6h57.7C51,264.7,157.2,158.8,288.2,158.6z"
			/>
		<path id="XMLID_13_" fill="#F4D173" d="M527.1,395.6c0,0.5,0,1,0,1.5c0,131.7-106.8,238.5-238.5,238.5c-0.1,0-0.3,0-0.4,0v58
			c0.2,0,0.5,0,0.7,0c163.7,0,296.5-132.7,296.5-296.5c0-0.5,0-1,0-1.5H527.1z"/>
		<path id="XMLID_14_" fill="#E88272" d="M50.2,397.1c0-0.5,0-1,0-1.5H-7.5c0,0.5,0,1,0,1.5c0,163.5,132.3,296.1,295.7,296.5v-58
			C156.7,635.3,50.2,528.6,50.2,397.1z"/>
		<g id="XMLID_461_">
			<path id="XMLID_16_" fill="#FFFFFF" d="M224.6,397.1c0-0.5,0-1,0-1.5H50.2c0,0.5,0,1,0,1.5c0,131.6,106.6,238.3,238.1,238.5
				V461.4C253,461,224.6,432.4,224.6,397.1z"/>
			<path id="XMLID_458_" fill="#E6E6E6" d="M288.7,636.1h-0.5c-63.7-0.1-123.7-25-168.7-70.1c-45-45.2-69.8-105.2-69.8-168.9
				c0-0.3,0-0.6,0-0.8v-1.2h175.4v1.1c0,0.3,0,0.6,0,0.9c0,34.8,28.3,63.5,63.2,63.9h0.5L288.7,636.1L288.7,636.1z M50.7,396.1v0.2
				c0,0.3,0,0.5,0,0.8c0,130.8,106.3,237.5,237.1,238V461.9c-35.2-0.6-63.7-29.6-63.7-64.9c0-0.3,0-0.6,0-1l0,0H50.7V396.1z"/>
		</g>
		<g id="XMLID_457_">
			<path id="XMLID_17_" fill="#FFFFFF" d="M288.2,332.7V158.6c-131,0.2-237.3,106.1-238.1,237h174.4
				C225.4,360.9,253.5,333.1,288.2,332.7z"/>
			<path id="XMLID_454_" fill="#E6E6E6" d="M225.1,396.1H49.7v-0.5c0.4-63.5,25.4-123.1,70.3-167.9c45-44.8,104.8-69.5,168.2-69.6
				h0.5v175.1h-0.5c-34.6,0.4-62.3,27.8-63.1,62.4V396.1z M50.7,395.1h173.4c0.5-16.7,7.3-32.4,19.2-44.1
				c11.9-11.8,27.7-18.4,44.4-18.7V159.1C158,159.6,51.8,265.3,50.7,395.1z"/>
		</g>
		<g id="XMLID_453_">
			<path id="XMLID_18_" fill="#FFFFFF" d="M353.3,397.1c0,35.6-28.8,64.4-64.4,64.4c-0.2,0-0.5,0-0.7,0v174.1c0.1,0,0.3,0,0.4,0
				c131.7,0,238.5-106.8,238.5-238.5c0-0.5,0-1,0-1.5H353.3C353.3,396.1,353.3,396.6,353.3,397.1z"/>
			<path id="XMLID_450_" fill="#E6E6E6" d="M288.7,636.1h-0.9V460.9h0.8c0.1,0,0.2,0,0.4,0c35.2,0,63.9-28.7,63.9-63.9
				c0-0.3,0-0.6,0-0.9V395h174.9v1.2c0,0.3,0,0.6,0,0.8c0,63.8-24.9,123.9-70,169C412.5,611.2,352.5,636.1,288.7,636.1z
				 M288.7,461.9v173.2c131.2,0,237.9-106.8,237.9-238c0-0.3,0-0.5,0-0.8v-0.2H353.8l0,0c0,0.3,0,0.6,0,1
				c0,35.8-29.1,64.9-64.9,64.9C288.9,461.9,288.8,461.9,288.7,461.9z"/>
		</g>
		<g id="XMLID_449_">
			<path id="XMLID_23_" fill="#FFFFFF" d="M288.7,158.6c-0.1,0-0.3,0-0.4,0v174.1c0.2,0,0.5,0,0.7,0c35.1,0,63.5,28,64.3,62.9h173.8
				C526.3,264.5,419.9,158.6,288.7,158.6z"/>
			<path id="XMLID_104_" fill="#E6E6E6" d="M527.6,396.1H352.8v-0.5c-0.8-34.4-29.4-62.4-63.8-62.4c-0.1,0-0.3,0-0.4,0h-0.8V158.1
				h0.9c63.6,0,123.4,24.7,168.5,69.5s70.1,104.5,70.5,168L527.6,396.1z M353.8,395.1h172.9c-1.1-130.2-107.7-236-238-236v173.1
				c0.1,0,0.1,0,0.2,0c17.1,0,33.2,6.6,45.4,18.5C346.4,362.5,353.3,378.2,353.8,395.1z"/>
		</g>
		<g id="XMLID_103_">
			<path id="XMLID_6_" fill="#FFFFFF" d="M289,332.7c-0.2,0-0.5,0-0.7,0"/>
		</g>
	</g>
	<g id="XMLID_336_">
		<path id="XMLID_337_" fill="#414042" d="M520.8,518.9l0.5,1.5c-1.4,0.2-2.8,1.1-3.6,2.6c-1,1.8-0.7,3.4,0.7,4.2
			c1.6,0.9,2.9,0,4-1.9c0.3-0.5,0.6-1.1,0.7-1.3l1.4,0.8c-0.1,0.2-0.5,0.8-0.7,1.3c-0.9,1.6-1,3.3,0.5,4.1c1.4,0.8,2.9-0.1,3.7-1.6
			c0.8-1.4,0.8-2.7,0.3-4.2l1.5-0.3c0.6,1.5,0.6,3.4-0.4,5.4c-1.3,2.4-3.6,3.6-5.7,2.4c-1.8-1-1.9-3-1.4-4.3
			c-0.7,1.1-2.7,2.3-4.7,1.2c-2.1-1.2-2.7-3.7-1.1-6.5C517.4,520.1,519.2,519.1,520.8,518.9z"/>
		<path id="XMLID_339_" fill="#414042" d="M513.6,529.3c0.6,0.3,0.7,1.1,0.4,1.6c-0.3,0.6-1.1,0.7-1.6,0.4c-0.6-0.3-0.7-1.1-0.4-1.6
			S513.1,529,513.6,529.3z"/>
		<path id="XMLID_341_" fill="#414042" d="M509.3,538.4l0.5,1.6c-1.4,0.2-3.1,0.9-4.2,2.6c-1.4,2.1-0.8,3.6,0.2,4.2
			c1.4,1,2.8-0.2,4.3-1.5c1.8-1.6,3.8-3.3,6.1-1.8c2,1.3,2.1,4,0.5,6.3c-1.2,1.8-2.8,2.8-4.5,3.1l-0.5-1.6c1.6-0.2,2.9-1.2,3.8-2.5
			c1-1.4,0.9-3-0.2-3.7c-1.2-0.8-2.5,0.3-3.9,1.6c-1.8,1.6-3.9,3.4-6.4,1.7c-1.7-1.2-2.7-3.5-0.5-6.8
			C505.7,539.6,507.6,538.6,509.3,538.4z"/>
		<path id="XMLID_343_" fill="#414042" d="M500.5,550.4l-4.5-3.3l1-1.3l11.5,8.6l-1,1.3l-1.2-0.9c0.4,1.2,0.2,2.7-0.7,3.9
			c-1.6,2.2-4.4,2.5-7.1,0.5s-3.3-4.8-1.6-7C497.7,551,499,550.4,500.5,550.4z M499.5,557.8c1.8,1.4,4,1.4,5.2-0.3
			c0.8-1,0.9-2.5,0.5-3.5l-3.8-2.8c-1.1-0.1-2.4,0.5-3.2,1.5C497,554.3,497.7,556.4,499.5,557.8z"/>
		<path id="XMLID_346_" fill="#414042" d="M492.8,557.9l8.1,6.5l-1,1.3l-1.3-1.1c0.3,1.3,0.2,2.8-0.7,3.9l-1.3-1
			c0.2-0.1,0.3-0.3,0.5-0.5c0.6-0.8,0.8-2.3,0.5-3.2l-5.7-4.6L492.8,557.9z"/>
		<path id="XMLID_348_" fill="#414042" d="M488.3,563.3l8,6.7l-1,1.2l-8-6.7L488.3,563.3z M498.4,571.5c0.5,0.4,0.5,1.1,0.1,1.5
			c-0.4,0.5-1.1,0.5-1.5,0.1c-0.5-0.4-0.5-1.1-0.1-1.5S498,571.1,498.4,571.5z"/>
		<path id="XMLID_351_" fill="#414042" d="M480.6,572.2l5.1,4.5c1.4,1.2,2.4,0.9,3.3-0.1c0.8-0.9,1.1-2.4,0.9-3.4l-5.7-5.1l1.1-1.2
			l7.7,7l-1.1,1.2l-1.1-1c0.2,1.1-0.1,2.8-1.2,3.9c-1.5,1.6-3,1.7-4.7,0.2l-5.4-4.9L480.6,572.2z"/>
		<path id="XMLID_353_" fill="#414042" d="M478.7,577.4l4.9,4.7l1.2-1.2l1,1l-1.2,1.2l2,2l-1.1,1.2l-2-2l-1.5,1.5l-1-1l1.5-1.5
			l-4.7-4.5c-0.6-0.5-1.2-0.7-1.7-0.2c-0.3,0.3-0.5,0.8-0.5,1.1l-1.2-0.5c0-0.6,0.2-1.2,0.9-1.9
			C476.4,576.2,477.6,576.3,478.7,577.4z"/>
		<path id="XMLID_355_" fill="#414042" d="M466.5,586.4l8.7,9.4l3.3-3.1l1.1,1.2l-8,7.4l-1.1-1.2l3.3-3.1l-8.7-9.4L466.5,586.4z"/>
		<path id="XMLID_357_" fill="#414042" d="M461.5,590.9l6.8,7.8l-1.2,1.1l-1.1-1.3c0.1,1.4-0.3,2.8-1.4,3.7l-1.1-1.2
			c0.2-0.1,0.3-0.2,0.5-0.4c0.7-0.7,1.2-2.2,1-3.1l-4.8-5.5L461.5,590.9z"/>
		<path id="XMLID_359_" fill="#414042" d="M451.2,599.6l0.7,0.9c0.1-1.3,0.7-2.4,1.8-3.3c1.4-1.1,3.6-1.4,5,0.4
			c1.5,1.8,0.7,3.8-0.7,5c-1.1,0.9-2.3,1.3-3.6,1.1l1.2,1.5c0.9,1.1,2.3,1,3.4,0c1-0.8,1.5-1.8,1.6-3.1l1.3,0.4
			c-0.1,1.6-0.8,2.9-2.1,4c-1.7,1.4-3.8,1.8-5.3-0.2l-4.5-5.5L451.2,599.6z M452.6,601.3l1.2,1.5c1,0.3,2.2-0.1,3-0.8
			c1.2-1,1.4-2.4,0.5-3.4c-0.8-1-2.2-1.1-3.4-0.1C453.1,599.2,452.5,600.3,452.6,601.3z"/>
		<path id="XMLID_362_" fill="#414042" d="M451.1,606.3c1.8,2.5,1.6,5.6-0.9,7.5c-1.5,1.1-2.9,1.2-4.1,0.8l0.3-1.4
			c1.1,0.3,2.1,0.1,2.9-0.5c1.8-1.3,1.9-3.5,0.5-5.4c-1.4-1.8-3.5-2.4-5.3-1.1c-0.9,0.6-1.3,1.5-1.3,2.7l-1.5-0.1
			c0-1.3,0.5-2.6,2-3.7C446.2,603.2,449.3,603.9,451.1,606.3z"/>
		<path id="XMLID_364_" fill="#414042" d="M433.2,612.8l5.7,1.7l0.5-2.4l-1.7-2.5l1.3-0.9l8.1,11.9l-1.3,0.9l-5.4-7.8l-1.4,7.7
			l-1.7,1.2l1.1-6.5l-7-2.1L433.2,612.8z"/>
		<path id="XMLID_366_" fill="#414042" d="M430,614.9l5.6,8.8l-1.4,0.9l-5.6-8.8L430,614.9z M437.2,625.7c0.3,0.5,0.2,1.2-0.3,1.5
			s-1.2,0.2-1.5-0.3s-0.2-1.2,0.3-1.5C436.2,625,436.9,625.1,437.2,625.7z"/>
		<path id="XMLID_369_" fill="#414042" d="M419.9,621l3.5,5.8c0.9,1.6,2,1.6,3.2,0.9c1.1-0.7,1.7-1.9,1.8-3l-3.9-6.5l1.4-0.8
			l5.3,8.9l-1.4,0.8l-0.8-1.3c-0.2,1.1-0.9,2.6-2.3,3.4c-1.9,1.1-3.4,0.8-4.6-1.2l-3.7-6.3L419.9,621z"/>
		<path id="XMLID_371_" fill="#414042" d="M414.6,621l-0.2,1.5c-1.2-0.5-2.3-0.4-3.7,0.3c-1.5,0.8-2.5,2.3-1.5,4.3l0.7,1.3
			c0.2-1.3,0.9-2.6,2.2-3.3c2.4-1.3,5-0.4,6.6,2.6c1.6,2.9,0.9,5.7-1.5,7c-1.2,0.7-2.7,0.6-3.9,0l0.7,1.4l-1.4,0.8l-4.8-8.9
			c-1.6-3,0-5.1,2.2-6.3C411.8,620.8,413,620.5,414.6,621z M410.7,629.6l2.1,4c0.9,0.5,2.4,0.6,3.5,0c1.8-1,2.2-3,1.1-5.1
			c-1.1-2-3-2.9-4.8-1.9C411.5,627.2,410.7,628.5,410.7,629.6z"/>
		<path id="XMLID_374_" fill="#414042" d="M162.4,622.9l-1.8,3.2l6,3.3l-0.7,1.3l-9.9,5.1l-2.1-1.2l4.4-8l-1.8-1l0.8-1.4l1.8,1
			l1.8-3.2L162.4,622.9z M156.2,634l8-4.1l-4.4-2.5L156.2,634z"/>
		<path id="XMLID_377_" fill="#414042" d="M157,620.9c-0.3,0.6-1.1,0.7-1.6,0.4c-0.6-0.3-0.7-1.1-0.4-1.6c0.3-0.6,1.1-0.7,1.6-0.4
			S157.3,620.4,157,620.9z"/>
		<path id="XMLID_379_" fill="#414042" d="M148,616.6l-1.6,0.5c-0.2-1.4-0.9-3.1-2.6-4.2c-2.1-1.4-3.6-0.7-4.2,0.2
			c-1,1.4,0.2,2.8,1.5,4.3c1.6,1.8,3.3,3.8,1.8,6.1c-1.3,2-4,2.1-6.3,0.5c-1.8-1.2-2.8-2.8-3.1-4.5l1.6-0.5c0.2,1.6,1.2,2.9,2.5,3.8
			c1.4,1,3,0.9,3.7-0.2c0.8-1.2-0.3-2.5-1.6-3.9c-1.6-1.8-3.4-3.9-1.7-6.4c1.2-1.7,3.5-2.7,6.8-0.5C146.7,613,147.7,614.9,148,616.6
			z"/>
		<path id="XMLID_381_" fill="#414042" d="M138.1,607.4l-6.1,8.4l-1.3-1l1-1.4c-1.3,0.4-2.8,0.3-3.9-0.5l1-1.3
			c0.1,0.1,0.3,0.3,0.5,0.4c0.8,0.6,2.4,0.7,3.3,0.3l4.4-5.9L138.1,607.4z"/>
		<path id="XMLID_383_" fill="#414042" d="M124.8,613.7c-0.4,0.5-1.1,0.6-1.5,0.2c-0.5-0.4-0.6-1.1-0.2-1.5c0.4-0.5,1-0.6,1.5-0.2
			C125.1,612.5,125.2,613.2,124.8,613.7z M132.5,603.2l-6.3,8.3l-1.3-1l6.3-8.3L132.5,603.2z"/>
		<path id="XMLID_386_" fill="#414042" d="M123.3,595.9l-4.3,5.3c-1.2,1.4-0.8,2.5,0.3,3.3c1,0.8,2.4,1,3.4,0.7l4.8-5.9l1.3,1
			l-6.6,8.1l-1.3-1l1-1.2c-1.1,0.2-2.8,0-4-1c-1.7-1.4-1.9-3-0.4-4.7l4.6-5.7L123.3,595.9z"/>
		<path id="XMLID_388_" fill="#414042" d="M118,594.2l-4.5,5.1l1.3,1.1l-0.9,1.1l-1.3-1.1l-1.9,2.1l-1.2-1.1l1.9-2.1l-1.6-1.4
			l0.9-1.1l1.6,1.4l4.3-4.9c0.5-0.6,0.6-1.2,0.1-1.7c-0.3-0.3-0.8-0.4-1.1-0.4l0.4-1.2c0.6,0,1.2,0.2,1.9,0.8
			C119,591.9,119,593.1,118,594.2z"/>
		<path id="XMLID_390_" fill="#414042" d="M111,584.9l-10.1,10.2l-4.1-4.1c-2.1-2-1.8-4.6-0.2-6.2c1.6-1.6,4.2-1.9,6.2,0.1l2.8,2.8
			l4-4.1L111,584.9z M97.9,586.2c-1.1,1.2-1.1,2.8,0.1,4l2.7,2.6l3.8-3.9l-2.7-2.6C100.7,585.1,99.1,585,97.9,586.2z"/>
		<path id="XMLID_393_" fill="#414042" d="M102.2,576.1L91.8,586l-1.1-1.2l10.4-9.9L102.2,576.1z"/>
		<path id="XMLID_395_" fill="#414042" d="M94.6,567.8l-0.9,0.8c1.3,0,2.4,0.6,3.4,1.6c1.2,1.3,1.5,3.5-0.1,5
			c-1.7,1.6-3.8,0.9-5-0.4c-0.9-1.1-1.4-2.2-1.2-3.5l-1.4,1.2c-1,0.9-0.9,2.3,0.1,3.4c0.8,0.9,1.8,1.4,3.2,1.4l-0.3,1.3
			c-1.6-0.1-2.9-0.7-4.1-1.9c-1.5-1.6-1.9-3.7-0.1-5.3l5.3-4.8L94.6,567.8z M92.9,569.3l-1.5,1.3c-0.2,1,0.2,2.1,0.9,3
			c1,1.1,2.4,1.3,3.4,0.4c1-0.9,1-2.3,0-3.4C95,569.7,94,569.2,92.9,569.3z"/>
		<path id="XMLID_398_" fill="#414042" d="M87,558.9l-5.3,4.3c-1.4,1.2-1.3,2.2-0.4,3.3c0.8,1,2.2,1.4,3.2,1.4l5.9-4.8l1,1.3
			l-8.1,6.6l-1-1.3l1.2-1c-1.1,0-2.7-0.5-3.7-1.7c-1.4-1.7-1.3-3.3,0.5-4.7l5.7-4.6L87,558.9z"/>
		<path id="XMLID_400_" fill="#414042" d="M79.9,549.6l-5.5,4.1c-1.5,1.1-1.4,2.2-0.5,3.3c0.8,1,2.1,1.5,3.1,1.5l6.1-4.5l1,1.3
			l-8.3,6.2l-1-1.3l1.2-0.9c-1.1-0.1-2.7-0.7-3.6-1.9c-1.3-1.7-1.1-3.3,0.7-4.7l5.9-4.4L79.9,549.6z"/>
		<path id="XMLID_402_" fill="#414042" d="M66.7,553.4c-0.5,0.3-1.2,0.2-1.5-0.3s-0.2-1.2,0.3-1.5s1.2-0.2,1.5,0.3
			C67.3,552.3,67.2,553,66.7,553.4z M77.2,545.7l-8.5,6l-0.9-1.3l8.5-6L77.2,545.7z"/>
		<path id="XMLID_405_" fill="#414042" d="M70.6,536l-5.7,3.7c-1.5,1-1.5,2.1-0.8,3.3c0.7,1.1,2,1.7,3,1.7l6.4-4.1l0.9,1.4l-8.7,5.7
			l-0.9-1.4l1.3-0.8c-1.1-0.1-2.7-0.8-3.5-2.1c-1.2-1.8-0.9-3.4,1-4.6l6.1-4L70.6,536z"/>
		<path id="XMLID_407_" fill="#414042" d="M70.4,530.7l-1.5-0.1c0.5-1.3,0.3-2.4-0.5-3.6c-0.9-1.5-2.4-2.5-4.4-1.3l-1.3,0.8
			c1.3,0.1,2.6,0.8,3.4,2.1c1.4,2.3,0.6,5-2.3,6.7s-5.6,1.1-7-1.3c-0.7-1.2-0.7-2.6-0.2-3.9l-1.4,0.8l-0.8-1.4l8.7-5.1
			c3-1.7,5.1-0.2,6.4,2C70.5,527.8,70.9,529,70.4,530.7z M61.7,527l-3.9,2.3c-0.5,0.9-0.5,2.4,0.1,3.5c1.1,1.8,3.1,2,5.1,0.9
			c2-1.2,2.8-3.1,1.7-4.9C64.1,527.7,62.8,527.1,61.7,527z"/>
	</g>
	<g id="XMLID_251_">
		<path id="XMLID_252_" fill="#414042" d="M63.5,269.7L53,263.8l1,3.2l-1.5,0.4l-1.5-5l0.8-1.4l12.5,7.1L63.5,269.7z"/>
		<path id="XMLID_254_" fill="#414042" d="M65,265.1c-0.6-0.3-0.7-1.1-0.4-1.6c0.3-0.6,1.1-0.7,1.6-0.4c0.6,0.3,0.7,1.1,0.4,1.6
			C66.3,265.3,65.5,265.4,65,265.1z"/>
		<path id="XMLID_256_" fill="#414042" d="M71.4,256.5l-11.9-8l3.2-4.8c1.6-2.4,4.2-2.6,6.1-1.3c2,1.3,2.7,3.8,1.1,6.2l-2.2,3.3
			l4.7,3.2L71.4,256.5z M67.7,243.9c-1.3-0.9-2.9-0.6-3.9,0.9l-2.1,3.1l4.5,3l2.1-3.1C69.4,246.4,69.1,244.8,67.7,243.9z"/>
		<path id="XMLID_259_" fill="#414042" d="M78.4,246.2l-8.4-6.1l0.9-1.3l1.4,1c-0.4-1.3-0.3-2.8,0.5-3.9l1.3,1
			c-0.1,0.1-0.3,0.3-0.4,0.5c-0.6,0.8-0.7,2.4-0.3,3.3l6,4.3L78.4,246.2z"/>
		<path id="XMLID_261_" fill="#414042" d="M78.1,237.8c-2.4-1.9-3.1-4.9-1.1-7.4s5.1-2.5,7.5-0.7c2.4,1.9,3.1,4.9,1.1,7.4
			S80.4,239.7,78.1,237.8z M83.4,231.1c-1.7-1.3-3.9-1.5-5.3,0.2s-0.6,3.9,1,5.2c1.7,1.3,3.9,1.5,5.3-0.2
			C85.8,234.5,85,232.4,83.4,231.1z"/>
		<path id="XMLID_264_" fill="#414042" d="M95,225.3l-1.2-1c0.3,1.3,0,2.7-0.9,3.8c-1.8,2.1-4.6,2.2-7.2-0.1c-2.5-2.2-2.9-5-1.1-7.1
			c0.9-1.1,2.3-1.6,3.7-1.5l-4.2-3.6l1.1-1.2l10.9,9.4L95,225.3z M92.9,223.5l-3.6-3.1c-1.1-0.2-2.5,0.3-3.3,1.3
			c-1.4,1.6-0.9,3.7,0.9,5.2s3.9,1.7,5.2,0.1C92.9,225.9,93.2,224.5,92.9,223.5z"/>
		<path id="XMLID_267_" fill="#414042" d="M103,216.7l-1.1-1c0.1,1.2-0.2,2.8-1.3,3.9c-1.5,1.6-3,1.7-4.7,0.1l-5.3-5l1.1-1.2l5,4.7
			c1.3,1.3,2.4,1,3.3-0.1c0.9-0.9,1.2-2.3,1-3.3l-5.6-5.3l1.1-1.2l7.6,7.1L103,216.7z"/>
		<path id="XMLID_269_" fill="#414042" d="M102.2,210c-2.1-2.2-2.3-5.4-0.1-7.5c1.4-1.3,2.7-1.5,4-1.4l-0.1,1.5
			c-1.2-0.2-2.1,0.1-2.8,0.9c-1.6,1.5-1.4,3.7,0.2,5.4s3.8,1.9,5.4,0.4c0.8-0.8,1.1-1.7,1-2.8h1.5c0.1,1.3-0.1,2.6-1.5,4
			C107.5,212.5,104.3,212.3,102.2,210z"/>
		<path id="XMLID_271_" fill="#414042" d="M112.6,204.3l-4.6-5l-1.3,1.2l-1-1.1l1.3-1.2l-1.9-2.1l1.2-1.1l1.9,2.1l1.6-1.4l1,1.1
			l-1.6,1.4l4.4,4.8c0.5,0.6,1.2,0.8,1.7,0.3c0.3-0.3,0.5-0.7,0.5-1.1l1.2,0.6c0,0.6-0.3,1.2-1,1.8
			C114.8,205.5,113.7,205.4,112.6,204.3z"/>
		<path id="XMLID_273_" fill="#414042" d="M122.6,198.3l-9-11.2l4.5-3.6c2.2-1.8,4.7-1.3,6.2,0.5c1.5,1.8,1.4,4.4-0.8,6.2l-3.1,2.5
			l3.6,4.4L122.6,198.3z M122.9,185.2c-1-1.3-2.6-1.4-3.9-0.3l-2.9,2.4l3.4,4.2l2.9-2.4C123.7,188,123.9,186.4,122.9,185.2z"/>
		<path id="XMLID_276_" fill="#414042" d="M132.4,190.5l-8.7-11.4l1.3-1l8.7,11.5L132.4,190.5z"/>
		<path id="XMLID_278_" fill="#414042" d="M141.5,183.9l-0.7-1c-0.2,1.3-0.8,2.4-2,3.2c-1.4,1-3.7,1.1-5-0.7c-1.3-1.9-0.5-3.9,1-4.9
			c1.2-0.8,2.4-1.1,3.6-0.8l-1.1-1.5c-0.8-1.1-2.2-1.1-3.4-0.3c-1,0.7-1.6,1.7-1.8,3l-1.3-0.5c0.2-1.6,1-2.8,2.4-3.8
			c1.8-1.3,3.9-1.5,5.3,0.5l4.1,5.8L141.5,183.9z M140.2,182.1l-1.1-1.6c-1-0.3-2.2-0.1-3.1,0.6c-1.2,0.9-1.5,2.3-0.8,3.3
			c0.8,1.1,2.2,1.2,3.4,0.4C139.5,184.2,140.2,183.2,140.2,182.1z"/>
		<path id="XMLID_281_" fill="#414042" d="M151.2,177.4l-3.7-5.7c-1-1.5-2.1-1.5-3.3-0.8c-1.1,0.7-1.7,2-1.7,3l4.1,6.4l-1.4,0.9
			l-5.6-8.7l1.4-0.9l0.8,1.3c0.1-1.1,0.8-2.7,2.2-3.5c1.8-1.2,3.4-0.9,4.6,1l4,6.1L151.2,177.4z"/>
		<path id="XMLID_283_" fill="#414042" d="M161.3,171.4l-3.4-5.9c-0.9-1.6-2-1.6-3.2-0.9c-1.1,0.6-1.7,1.9-1.8,2.9l3.8,6.6l-1.4,0.8
			l-5.2-9l1.4-0.8l0.8,1.3c0.2-1.1,1-2.6,2.3-3.4c1.9-1.1,3.4-0.7,4.6,1.2l3.7,6.3L161.3,171.4z"/>
		<path id="XMLID_285_" fill="#414042" d="M159,157.8c-0.3-0.5-0.1-1.2,0.4-1.5s1.2-0.1,1.5,0.4s0.1,1.2-0.5,1.5
			C159.9,158.5,159.3,158.3,159,157.8z M165.4,169.1l-5-9.1l1.4-0.8l5,9.1L165.4,169.1z"/>
		<path id="XMLID_288_" fill="#414042" d="M175.8,163.7l-3.1-6.1c-0.8-1.6-1.9-1.7-3.2-1.1c-1.1,0.6-1.9,1.8-2,2.8l3.5,6.8l-1.4,0.7
			l-4.7-9.3l1.4-0.7l0.7,1.3c0.3-1.1,1.1-2.5,2.5-3.2c1.9-1,3.5-0.5,4.5,1.5l3.3,6.5L175.8,163.7z"/>
		<path id="XMLID_290_" fill="#414042" d="M181.1,164.1l0.3-1.4c1.2,0.6,2.3,0.5,3.7-0.1c1.6-0.7,2.7-2.1,1.8-4.2l-0.6-1.4
			c-0.3,1.3-1.1,2.5-2.4,3.1c-2.5,1.1-5.1,0-6.4-3c-1.4-3.1-0.5-5.7,2-6.8c1.3-0.6,2.7-0.4,3.9,0.3l-0.6-1.4l1.5-0.7l4.1,9.2
			c1.4,3.2-0.4,5.1-2.7,6.1C184,164.5,182.8,164.7,181.1,164.1z M185.7,155.8l-1.8-4.2c-0.9-0.6-2.3-0.8-3.5-0.3
			c-1.9,0.8-2.4,2.9-1.4,5c0.9,2.1,2.8,3.1,4.7,2.3C184.8,158.1,185.6,156.9,185.7,155.8z"/>
		<path id="XMLID_293_" fill="#414042" d="M398.7,161.5l0.6-1.3c6.4-1.4,10-2.3,11.1-4.5c0.8-1.6-0.2-3-1.5-3.7
			c-1.5-0.8-3.1-0.7-4.3-0.1l-0.5-1.5c1.6-0.8,3.7-0.7,5.5,0.2c2.1,1.1,3.7,3.3,2.5,5.9c-1.3,2.6-5.1,3.7-10.1,4.8l6.3,3.1l-0.7,1.4
			L398.7,161.5z"/>
		<path id="XMLID_295_" fill="#414042" d="M410.4,166.3c0.3-0.6,1-0.8,1.6-0.5s0.8,1,0.5,1.6c-0.3,0.6-1,0.8-1.6,0.5
			C410.4,167.6,410.1,166.9,410.4,166.3z"/>
		<path id="XMLID_297_" fill="#414042" d="M426.5,176.6l-0.2-6.8l-2.5-1.5l-3,4.9l-1.5-0.9l7.4-12.3l4.9,3c2.2,1.4,3,3.8,1.6,6
			c-1.3,2.2-3.6,2.5-5.4,1.6l0.3,7L426.5,176.6z M431.8,168c0.8-1.4,0.4-2.9-1-3.8l-3.2-2l-2.8,4.7l3.2,1.9
			C429.3,169.8,430.9,169.4,431.8,168z"/>
		<path id="XMLID_300_" fill="#414042" d="M432.2,174c1.7-2.5,4.8-3.3,7.3-1.7c2.6,1.7,2.8,4.8,1.1,7.4l-0.2,0.3l-7-4.7
			c-1,1.7-0.7,3.8,1.1,5.1c1,0.7,2.3,0.9,3.4,0.7l0.1,1.3c-1.4,0.3-2.9,0-4.3-1C431,179.8,430.4,176.7,432.2,174z M438.7,173.4
			c-1.8-1.2-3.8-0.3-4.8,1l5.7,3.8C440.5,176.9,440.7,174.7,438.7,173.4z"/>
		<path id="XMLID_303_" fill="#414042" d="M439.7,185.4l8.4-11.7l1.3,0.9l-8.4,11.8L439.7,185.4z"/>
		<path id="XMLID_305_" fill="#414042" d="M446.3,183.7c1.8-2.4,5-3,7.4-1.2c2.5,1.9,2.5,5,0.6,7.5l-0.2,0.3l-6.7-5.1
			c-1.1,1.6-1,3.8,0.8,5.1c0.9,0.7,2.2,1.1,3.3,0.9v1.3c-1.5,0.2-2.9-0.2-4.3-1.3C444.7,189.4,444.3,186.3,446.3,183.7z
			 M452.8,183.5c-1.8-1.4-3.8-0.5-4.8,0.7l5.4,4.2C454.4,187.1,454.7,185,452.8,183.5z"/>
		<path id="XMLID_308_" fill="#414042" d="M458,199.7l0.8-0.9c-1.3,0.2-2.5-0.2-3.6-1.1c-1.4-1.1-2-3.2-0.6-5c1.5-1.8,3.6-1.4,5-0.3
			c1.1,0.9,1.7,2,1.7,3.3l1.2-1.4c0.9-1.1,0.6-2.4-0.6-3.4c-1-0.8-2-1.1-3.4-0.9l0.1-1.3c1.6-0.2,3,0.3,4.3,1.4
			c1.7,1.4,2.5,3.4,0.8,5.3l-4.6,5.5L458,199.7z M459.4,198l1.3-1.5c0.1-1.1-0.5-2.1-1.4-2.8c-1.2-1-2.6-0.9-3.4,0.1
			s-0.6,2.4,0.5,3.4C457.3,197.9,458.4,198.3,459.4,198z"/>
		<path id="XMLID_311_" fill="#414042" d="M461.8,201.2l1.4-0.3c0,1.1,0.5,2.4,1.5,3.4c1.2,1.1,2.3,1.1,3,0.3c0.8-0.8,0-1.9-0.8-3.1
			c-1-1.5-2.2-3.2-0.7-4.8c1.1-1.2,3.1-1.3,4.9,0.4c1.3,1.2,1.8,2.5,1.8,3.7l-1.3,0.3c0-1-0.4-2.2-1.4-3.1c-1.1-1-2.2-1-2.8-0.3
			c-0.7,0.7,0,1.7,0.8,2.9c1.1,1.5,2.3,3.3,0.7,5c-1.2,1.3-3.2,1.4-5.1-0.4C462.6,204.1,461.9,202.7,461.8,201.2z"/>
		<path id="XMLID_313_" fill="#414042" d="M472.1,205.3c2.1-2.1,5.4-2.4,7.5-0.3c2.2,2.2,1.8,5.3-0.4,7.5l-0.3,0.3l-6-5.9
			c-1.3,1.5-1.5,3.6,0.1,5.2c0.8,0.8,2,1.3,3.2,1.3l-0.2,1.3c-1.5,0-2.9-0.6-4.1-1.8C469.8,210.8,469.8,207.7,472.1,205.3z
			 M478.6,206c-1.6-1.6-3.7-1-4.9,0.1l4.9,4.8C479.7,209.8,480.3,207.7,478.6,206z"/>
		<path id="XMLID_316_" fill="#414042" d="M481.1,222l10.8-9.5l3.8,4.3c1.9,2.2,1.5,4.7-0.3,6.2c-1.8,1.6-4.3,1.6-6.2-0.5l-2.6-3
			l-4.3,3.8L481.1,222z M494.2,221.7c1.2-1.1,1.3-2.7,0.2-4l-2.5-2.8l-4.1,3.6l2.5,2.8C491.4,222.6,493,222.7,494.2,221.7z"/>
		<path id="XMLID_319_" fill="#414042" d="M489.2,231.4l11.1-9.1l1,1.2l-11.1,9.1L489.2,231.4z"/>
		<path id="XMLID_321_" fill="#414042" d="M496.2,240.2l0.9-0.7c-1.3-0.1-2.4-0.7-3.3-1.8c-1.1-1.4-1.3-3.6,0.5-5s3.9-0.6,4.9,0.8
			c0.9,1.1,1.2,2.3,1,3.6l1.5-1.1c1.1-0.9,1.1-2.2,0.1-3.4c-0.8-1-1.7-1.5-3.1-1.6l0.4-1.3c1.6,0.2,2.9,0.9,3.9,2.2
			c1.3,1.7,1.7,3.8-0.3,5.3l-5.7,4.4L496.2,240.2z M498,238.9l1.6-1.2c0.3-1,0-2.2-0.7-3.1c-0.9-1.2-2.3-1.4-3.4-0.6
			c-1,0.8-1.1,2.2-0.2,3.4C495.9,238.3,496.9,238.9,498,238.9z"/>
		<path id="XMLID_324_" fill="#414042" d="M503.1,249.7l5.6-3.9c1.5-1.1,1.4-2.1,0.6-3.3c-0.7-1-2.1-1.6-3.1-1.6l-6.2,4.4l-0.9-1.3
			l8.5-6l0.9,1.3l-1.2,0.9c1.1,0.1,2.7,0.7,3.6,2c1.3,1.8,1,3.3-0.8,4.6l-6,4.2L503.1,249.7z"/>
		<path id="XMLID_326_" fill="#414042" d="M509.5,259.5l5.7-3.7c1.5-1,1.5-2.1,0.8-3.3c-0.7-1.1-2-1.7-3-1.7l-6.4,4.1l-0.9-1.4
			l8.8-5.6l0.9,1.4l-1.3,0.8c1.1,0.2,2.7,0.9,3.5,2.2c1.2,1.8,0.9,3.4-1,4.6l-6.2,3.9L509.5,259.5z"/>
		<path id="XMLID_328_" fill="#414042" d="M512,263.5l8.9-5.3l0.8,1.4l-8.9,5.3L512,263.5z M523,256.7c0.5-0.3,1.2-0.1,1.5,0.4
			s0.1,1.2-0.4,1.5s-1.2,0.1-1.5-0.4C522.3,257.6,522.5,257,523,256.7z"/>
		<path id="XMLID_331_" fill="#414042" d="M517.8,273.7l6-3.3c1.6-0.9,1.7-2,1-3.2c-0.6-1.1-1.9-1.8-2.9-1.9l-6.7,3.7l-0.8-1.4
			l9.1-5l0.8,1.4l-1.3,0.7c1.1,0.2,2.6,1,3.3,2.4c1.1,1.9,0.6,3.4-1.3,4.5l-6.4,3.5L517.8,273.7z"/>
		<path id="XMLID_333_" fill="#414042" d="M517.6,279l1.4,0.2c-0.5,1.2-0.4,2.3,0.2,3.7c0.8,1.5,2.2,2.6,4.3,1.6l1.3-0.7
			c-1.3-0.2-2.6-1-3.2-2.3c-1.2-2.4-0.2-5,2.8-6.5s5.7-0.7,6.9,1.8c0.6,1.3,0.6,2.7-0.1,3.9l1.4-0.7l0.7,1.4l-9.1,4.5
			c-3.1,1.5-5.1-0.2-6.3-2.4C517.3,281.9,517.1,280.7,517.6,279z M526.1,283.3l4.1-2c0.6-0.9,0.7-2.4,0.1-3.5c-0.9-1.9-3-2.3-5-1.2
			c-2,1-3,2.9-2.1,4.8C523.7,282.4,525,283.2,526.1,283.3z"/>
	</g>
	<g id="Layer_3">
		<g id="XMLID_202_">
			<path id="XMLID_203_" d="M167.2,255.4l-1.3-3.3h-7.3l-1.3,3.3h-2.1l5.9-14.7h2.3l5.9,14.7H167.2z M162.2,242.6l-3.1,7.9h6.2
				L162.2,242.6z"/>
			<path id="XMLID_207_" d="M178.8,255.4v-1.6c-0.8,1.1-2.1,1.8-3.6,1.8c-2.8,0-4.7-2.1-4.7-5.6c0-3.4,1.9-5.6,4.7-5.6
				c1.4,0,2.7,0.7,3.6,1.9v-5.7h1.6v14.7h-1.6V255.4z M178.8,252.5v-4.8c-0.6-0.9-1.9-1.7-3.2-1.7c-2.1,0-3.4,1.8-3.4,4.1
				s1.3,4.1,3.4,4.1C176.9,254.2,178.2,253.5,178.8,252.5z"/>
			<path id="XMLID_210_" d="M191.5,255.4v-1.6c-0.8,1.1-2.1,1.8-3.6,1.8c-2.8,0-4.7-2.1-4.7-5.6c0-3.4,1.9-5.6,4.7-5.6
				c1.4,0,2.7,0.7,3.6,1.9v-5.7h1.6v14.7h-1.6V255.4z M191.5,252.5v-4.8c-0.6-0.9-1.9-1.7-3.2-1.7c-2.1,0-3.4,1.8-3.4,4.1
				s1.3,4.1,3.4,4.1C189.6,254.2,190.9,253.5,191.5,252.5z"/>
			<path id="XMLID_213_" d="M145.2,279.8l1.1-1.4c1,1.1,2.6,2.1,4.6,2.1c2.6,0,3.5-1.4,3.5-2.5c0-1.8-1.8-2.2-3.7-2.8
				c-2.4-0.6-5-1.3-5-4.2c0-2.4,2.2-4.1,5-4.1c2.2,0,4,0.7,5.2,2l-1.1,1.3c-1.1-1.2-2.6-1.8-4.2-1.8c-1.8,0-3,0.9-3,2.3
				c0,1.5,1.7,1.9,3.6,2.4c2.4,0.6,5.1,1.4,5.1,4.5c0,2.1-1.5,4.3-5.4,4.3C148.2,282.1,146.4,281.1,145.2,279.8z"/>
			<path id="XMLID_215_" d="M159.2,279.6v-7h-1.8v-1.5h1.8v-2.9h1.6v2.9h2.2v1.5h-2.2v6.6c0,0.8,0.4,1.4,1.1,1.4
				c0.5,0,0.9-0.2,1.1-0.4l0.5,1.2c-0.4,0.4-1,0.7-2,0.7C160,282.1,159.2,281.2,159.2,279.6z"/>
			<path id="XMLID_217_" d="M164.7,276.5c0-3.1,2-5.6,5.3-5.6s5.3,2.5,5.3,5.6s-2,5.6-5.3,5.6S164.7,279.6,164.7,276.5z
				 M173.5,276.5c0-2.2-1.3-4.1-3.5-4.1c-2.3,0-3.5,1.9-3.5,4.1c0,2.2,1.3,4.1,3.5,4.1S173.5,278.7,173.5,276.5z"/>
			<path id="XMLID_220_" d="M177.9,281.8v-10.6h1.6v1.7c0.9-1.1,2.1-1.9,3.5-1.9v1.7c-0.2,0-0.4-0.1-0.7-0.1c-1,0-2.4,0.8-2.9,1.7
				v7.5L177.9,281.8L177.9,281.8z"/>
			<path id="XMLID_222_" d="M184.9,268.6c0-0.6,0.5-1.1,1.1-1.1s1.1,0.5,1.1,1.1s-0.5,1.1-1.1,1.1S184.9,269.2,184.9,268.6z
				 M185.2,281.8v-10.6h1.6v10.6H185.2z"/>
			<path id="XMLID_225_" d="M189.5,276.5c0-3.1,2.2-5.6,5.2-5.6c3.2,0,5.1,2.5,5.1,5.7v0.4h-8.6c0.1,2,1.5,3.7,3.8,3.7
				c1.2,0,2.4-0.5,3.3-1.3l0.8,1.1c-1.1,1.1-2.5,1.6-4.2,1.6C191.8,282.1,189.5,279.8,189.5,276.5z M194.7,272.3
				c-2.3,0-3.4,1.9-3.5,3.5h7C198.2,274.3,197.2,272.3,194.7,272.3z"/>
			<path id="XMLID_249_" d="M201.6,280.4l0.9-1.2c0.7,0.8,2,1.5,3.5,1.5c1.6,0,2.5-0.8,2.5-1.8c0-1.2-1.3-1.5-2.7-1.8
				c-1.8-0.4-3.9-0.9-3.9-3.1c0-1.7,1.4-3.1,4-3.1c1.8,0,3.1,0.7,3.9,1.5l-0.8,1.1c-0.6-0.8-1.8-1.3-3.2-1.3c-1.5,0-2.4,0.7-2.4,1.7
				s1.2,1.3,2.6,1.6c1.8,0.4,4,0.9,4,3.3c0,1.8-1.4,3.2-4.2,3.2C204.1,282.1,202.7,281.6,201.6,280.4z"/>
		</g>
		<g id="XMLID_153_">
			<path id="XMLID_154_" d="M317.1,250.1c0-4.5,3.3-7.6,7.5-7.6c2.6,0,4.4,1.3,5.6,2.9l-1.5,0.9c-0.8-1.2-2.4-2.1-4-2.1
				c-3.2,0-5.7,2.5-5.7,6s2.4,6,5.7,6c1.7,0,3.2-0.9,4-2.1l1.6,0.9c-1.2,1.7-3,2.9-5.6,2.9C320.4,257.7,317.1,254.6,317.1,250.1z"/>
			<path id="XMLID_156_" d="M332.5,257.4v-10.6h1.7v1.7c0.9-1.1,2.1-1.9,3.5-1.9v1.7c-0.2,0-0.4-0.1-0.7-0.1c-1,0-2.4,0.8-2.9,1.7
				v7.5H332.5L332.5,257.4z"/>
			<path id="XMLID_158_" d="M339.1,252.1c0-3.1,2.2-5.6,5.2-5.6c3.2,0,5.1,2.5,5.1,5.7v0.4h-8.6c0.1,2,1.5,3.7,3.8,3.7
				c1.2,0,2.4-0.5,3.3-1.3l0.8,1.1c-1.1,1.1-2.5,1.6-4.2,1.6C341.4,257.7,339.1,255.4,339.1,252.1z M344.3,247.9
				c-2.3,0-3.4,1.9-3.5,3.5h7C347.8,249.9,346.8,247.9,344.3,247.9z"/>
			<path id="XMLID_161_" d="M358.8,257.4v-1.2c-0.9,1-2.1,1.5-3.5,1.5c-1.8,0-3.7-1.2-3.7-3.5c0-2.4,1.9-3.5,3.7-3.5
				c1.5,0,2.7,0.5,3.5,1.5v-1.9c0-1.4-1.1-2.2-2.7-2.2c-1.3,0-2.3,0.5-3.3,1.5l-0.8-1.1c1.1-1.2,2.5-1.8,4.2-1.8
				c2.2,0,4.1,1,4.1,3.6v7.3h-1.5V257.4z M358.8,255.2v-2c-0.6-0.9-1.8-1.3-2.9-1.3c-1.5,0-2.6,1-2.6,2.3s1.1,2.3,2.6,2.3
				C357,256.5,358.1,256.1,358.8,255.2z"/>
			<path id="XMLID_164_" d="M364,255.2v-7h-1.8v-1.5h1.8v-2.9h1.7v2.9h2.2v1.5h-2.2v6.6c0,0.8,0.4,1.4,1.1,1.4
				c0.5,0,0.9-0.2,1.1-0.4l0.5,1.2c-0.4,0.4-1,0.7-2,0.7C364.8,257.7,364,256.8,364,255.2z"/>
			<path id="XMLID_166_" d="M369.6,252.1c0-3.1,2.2-5.6,5.2-5.6c3.2,0,5.1,2.5,5.1,5.7v0.4h-8.6c0.1,2,1.5,3.7,3.8,3.7
				c1.2,0,2.4-0.5,3.3-1.3l0.8,1.1c-1.1,1.1-2.5,1.6-4.2,1.6C371.8,257.7,369.6,255.4,369.6,252.1z M374.8,247.9
				c-2.3,0-3.4,1.9-3.5,3.5h7C378.3,249.9,377.2,247.9,374.8,247.9z"/>
			<path id="XMLID_169_" d="M397.8,257.4c-0.4-0.4-1-0.9-1.6-1.5c-1.1,1.1-2.4,1.8-4.2,1.8c-2.5,0-4.6-1.4-4.6-4.1
				c0-2.3,1.5-3.5,3.2-4.4c-0.7-1.1-1.1-2.3-1.1-3.3c0-2,1.6-3.4,3.7-3.4c1.9,0,3.3,1,3.3,2.9c0,2.2-1.9,3.2-3.7,4.1
				c0.6,0.8,1.2,1.5,1.7,2.1c0.6,0.7,1.2,1.3,1.7,2c0.8-1.2,1.3-2.5,1.6-3.3l1.4,0.6c-0.5,1.2-1.1,2.6-2,3.8
				c0.9,0.9,1.8,1.8,2.9,2.8h-2.3V257.4z M395.2,254.9c-0.8-0.9-1.6-1.7-2-2.2c-0.6-0.7-1.3-1.5-1.8-2.3c-1.2,0.7-2.2,1.6-2.2,3.2
				c0,1.8,1.4,2.8,2.9,2.8C393.3,256.3,394.4,255.7,395.2,254.9z M392.1,248.5c1.6-0.8,2.9-1.6,2.9-3c0-1.1-0.7-1.7-1.7-1.7
				c-1.1,0-2,0.9-2,2.1C391.2,246.7,391.6,247.6,392.1,248.5z"/>
			<path id="XMLID_173_" d="M408.1,257.4v-14.7h5.9c2.9,0,4.6,2,4.6,4.4s-1.7,4.4-4.6,4.4h-4.1v5.8L408.1,257.4L408.1,257.4z
				 M416.7,247.2c0-1.7-1.2-2.8-2.9-2.8h-3.9v5.6h3.9C415.5,250,416.7,248.8,416.7,247.2z"/>
			<path id="XMLID_176_" d="M420.9,257.4v-14.7h1.7v14.7H420.9z"/>
			<path id="XMLID_178_" d="M432.5,257.4v-1.2c-0.9,1-2.1,1.5-3.5,1.5c-1.8,0-3.7-1.2-3.7-3.5c0-2.4,1.9-3.5,3.7-3.5
				c1.5,0,2.7,0.5,3.5,1.5v-1.9c0-1.4-1.1-2.2-2.7-2.2c-1.3,0-2.3,0.5-3.3,1.5l-0.8-1.1c1.1-1.2,2.5-1.8,4.2-1.8
				c2.2,0,4.1,1,4.1,3.6v7.3h-1.5V257.4z M432.5,255.2v-2c-0.6-0.9-1.8-1.3-2.9-1.3c-1.5,0-2.6,1-2.6,2.3s1.1,2.3,2.6,2.3
				C430.8,256.5,431.9,256.1,432.5,255.2z"/>
			<path id="XMLID_181_" d="M444.6,257.4v-7c0-1.9-0.9-2.5-2.4-2.5c-1.3,0-2.5,0.8-3.1,1.7v7.8h-1.7v-10.6h1.7v1.5
				c0.7-0.9,2.2-1.8,3.8-1.8c2.2,0,3.4,1.1,3.4,3.4v7.5H444.6L444.6,257.4z"/>
			<path id="XMLID_183_" d="M356.7,283.8L353,278h-3v5.8h-1.8v-14.7h5.9c2.7,0,4.6,1.7,4.6,4.4c0,2.6-1.8,4.1-3.8,4.3l4,6H356.7z
				 M356.8,273.6c0-1.7-1.2-2.8-2.9-2.8H350v5.6h3.9C355.6,276.4,356.8,275.2,356.8,273.6z"/>
			<path id="XMLID_186_" d="M360.2,278.5c0-3.1,2.2-5.6,5.2-5.6c3.2,0,5.1,2.5,5.1,5.7v0.4H362c0.1,2,1.5,3.7,3.8,3.7
				c1.2,0,2.4-0.5,3.3-1.3l0.8,1.1c-1.1,1.1-2.5,1.6-4.2,1.6C362.5,284.1,360.2,281.8,360.2,278.5z M365.4,274.3
				c-2.3,0-3.4,1.9-3.5,3.5h7C368.9,276.3,367.8,274.3,365.4,274.3z"/>
			<path id="XMLID_189_" d="M373.2,283.8v-14.7h1.7v14.7H373.2z"/>
			<path id="XMLID_191_" d="M377.5,278.5c0-3.1,2.2-5.6,5.2-5.6c3.2,0,5.1,2.5,5.1,5.7v0.4h-8.6c0.1,2,1.5,3.7,3.8,3.7
				c1.2,0,2.4-0.5,3.3-1.3l0.8,1.1c-1.1,1.1-2.5,1.6-4.2,1.6C379.8,284.1,377.5,281.8,377.5,278.5z M382.8,274.3
				c-2.3,0-3.4,1.9-3.5,3.5h7C386.2,276.3,385.2,274.3,382.8,274.3z"/>
			<path id="XMLID_194_" d="M397.2,283.8v-1.2c-0.9,1-2.1,1.5-3.5,1.5c-1.8,0-3.7-1.2-3.7-3.5c0-2.4,1.9-3.5,3.7-3.5
				c1.5,0,2.7,0.5,3.5,1.5v-1.9c0-1.4-1.1-2.2-2.7-2.2c-1.3,0-2.3,0.5-3.3,1.5l-0.8-1.1c1.1-1.2,2.5-1.8,4.2-1.8
				c2.2,0,4.1,1,4.1,3.6v7.3h-1.5V283.8z M397.2,281.6v-2c-0.6-0.9-1.8-1.3-2.9-1.3c-1.5,0-2.6,1-2.6,2.3s1.1,2.3,2.6,2.3
				C395.4,282.9,396.6,282.5,397.2,281.6z"/>
			<path id="XMLID_197_" d="M401.2,282.4l0.9-1.2c0.7,0.8,2,1.5,3.5,1.5c1.6,0,2.5-0.8,2.5-1.8c0-1.2-1.3-1.5-2.7-1.8
				c-1.8-0.4-3.9-0.9-3.9-3.1c0-1.7,1.4-3.1,4-3.1c1.8,0,3.1,0.7,3.9,1.5l-0.8,1.1c-0.6-0.8-1.8-1.3-3.2-1.3c-1.5,0-2.4,0.7-2.4,1.7
				s1.2,1.3,2.6,1.6c1.8,0.4,4,0.9,4,3.3c0,1.8-1.4,3.2-4.2,3.2C403.8,284.1,402.3,283.6,401.2,282.4z"/>
			<path id="XMLID_199_" d="M411.8,278.5c0-3.1,2.2-5.6,5.2-5.6c3.2,0,5.1,2.5,5.1,5.7v0.4h-8.6c0.1,2,1.5,3.7,3.8,3.7
				c1.2,0,2.4-0.5,3.3-1.3l0.8,1.1c-1.1,1.1-2.5,1.6-4.2,1.6C414,284.1,411.8,281.8,411.8,278.5z M417,274.3c-2.3,0-3.4,1.9-3.5,3.5
				h7C420.5,276.3,419.4,274.3,417,274.3z"/>
		</g>
		<g id="XMLID_108_">
			<path id="XMLID_109_" d="M131.1,474.8v-13h-4.6v-1.7h11.1v1.6h-4.7v13h-1.8V474.8z"/>
			<path id="XMLID_111_" d="M138.1,474.8v-10.6h1.6v1.7c0.9-1.1,2.1-1.9,3.5-1.9v1.7c-0.2,0-0.4-0.1-0.7-0.1c-1,0-2.4,0.8-2.9,1.7
				v7.5L138.1,474.8L138.1,474.8z"/>
			<path id="XMLID_113_" d="M152,474.8v-1.2c-0.9,1-2.1,1.5-3.5,1.5c-1.8,0-3.7-1.2-3.7-3.5c0-2.4,1.9-3.5,3.7-3.5
				c1.5,0,2.7,0.5,3.5,1.5v-1.9c0-1.4-1.1-2.2-2.7-2.2c-1.3,0-2.3,0.5-3.3,1.5l-0.8-1.1c1.1-1.2,2.5-1.8,4.2-1.8
				c2.2,0,4.1,1,4.1,3.6v7.3H152V474.8z M152,472.5v-2c-0.6-0.9-1.8-1.3-2.9-1.3c-1.5,0-2.6,1-2.6,2.3s1.1,2.3,2.6,2.3
				C150.2,473.9,151.3,473.4,152,472.5z"/>
			<path id="XMLID_116_" d="M156.3,469.5c0-3.1,2.1-5.6,5.3-5.6c1.9,0,3.1,0.8,3.9,1.8l-1.1,1c-0.7-1-1.6-1.4-2.7-1.4
				c-2.3,0-3.7,1.7-3.7,4.1s1.4,4.1,3.7,4.1c1.1,0,2-0.4,2.7-1.4l1.1,1c-0.8,1.1-2,1.8-3.9,1.8C158.5,475,156.3,472.6,156.3,469.5z"
				/>
			<path id="XMLID_118_" d="M175.1,474.8l-3.8-4.8l-1.8,1.7v3h-1.6v-14.6h1.6v9.7l5.6-5.7h2.1l-4.7,4.8l4.7,5.8h-2.1V474.8z"/>
			<path id="XMLID_120_" d="M184.9,474.8v-14.7h5c4.6,0,7.5,3.2,7.5,7.3c0,4.2-3,7.3-7.5,7.3h-5V474.8z M195.5,467.5
				c0-3.2-2-5.7-5.6-5.7h-3.2v11.4h3.2C193.5,473.2,195.5,470.6,195.5,467.5z"/>
			<path id="XMLID_123_" d="M206.9,474.8v-1.2c-0.9,1-2.1,1.5-3.5,1.5c-1.8,0-3.7-1.2-3.7-3.5c0-2.4,1.9-3.5,3.7-3.5
				c1.5,0,2.7,0.5,3.5,1.5v-1.9c0-1.4-1.1-2.2-2.7-2.2c-1.3,0-2.3,0.5-3.3,1.5l-0.8-1.1c1.1-1.2,2.5-1.8,4.2-1.8
				c2.2,0,4.1,1,4.1,3.6v7.3h-1.5V474.8z M206.9,472.5v-2c-0.6-0.9-1.8-1.3-2.9-1.3c-1.5,0-2.6,1-2.6,2.3s1.1,2.3,2.6,2.3
				C205.1,473.9,206.2,473.4,206.9,472.5z"/>
			<path id="XMLID_126_" d="M211.5,461.5c0-0.6,0.5-1.1,1.1-1.1s1.1,0.5,1.1,1.1s-0.5,1.1-1.1,1.1S211.5,462.2,211.5,461.5z
				 M211.8,474.8v-10.6h1.6v10.6H211.8z"/>
			<path id="XMLID_129_" d="M216.8,474.8v-14.7h1.6v14.7H216.8z"/>
			<path id="XMLID_131_" d="M221.4,477.4c0.2,0.1,0.6,0.2,0.9,0.2c0.7,0,1.2-0.2,1.6-1.1l0.7-1.6l-4.4-10.7h1.8l3.5,8.7l3.5-8.7h1.8
				l-5.3,12.8c-0.6,1.5-1.7,2.1-3.1,2.2c-0.4,0-0.9-0.1-1.2-0.2L221.4,477.4z"/>
			<path id="XMLID_133_" d="M140.1,501.2v-14.7h5.9c2.9,0,4.6,2,4.6,4.4s-1.7,4.4-4.6,4.4h-4.1v5.8h-1.8V501.2z M148.7,490.9
				c0-1.7-1.2-2.8-2.9-2.8h-3.9v5.6h3.9C147.5,493.7,148.7,492.6,148.7,490.9z"/>
			<path id="XMLID_136_" d="M153,501.2v-10.6h1.6v1.7c0.9-1.1,2.1-1.9,3.5-1.9v1.7c-0.2,0-0.4-0.1-0.7-0.1c-1,0-2.4,0.8-2.9,1.7v7.5
				L153,501.2L153,501.2z"/>
			<path id="XMLID_138_" d="M159.6,495.9c0-3.1,2-5.6,5.3-5.6s5.3,2.5,5.3,5.6s-2,5.6-5.3,5.6S159.6,498.9,159.6,495.9z
				 M168.4,495.9c0-2.2-1.3-4.1-3.5-4.1c-2.3,0-3.5,1.9-3.5,4.1s1.3,4.1,3.5,4.1C167.1,500,168.4,498,168.4,495.9z"/>
			<path id="XMLID_141_" d="M172.8,503.9l0.8-1.2c0.9,1.1,1.9,1.5,3.5,1.5c1.8,0,3.4-0.9,3.4-3.2v-1.5c-0.8,1.1-2.1,1.9-3.6,1.9
				c-2.8,0-4.7-2.1-4.7-5.5s1.9-5.5,4.7-5.5c1.4,0,2.7,0.7,3.6,1.9v-1.6h1.6V501c0,3.5-2.5,4.6-5.1,4.6
				C175.3,505.5,174,505.1,172.8,503.9z M180.5,498.1v-4.6c-0.6-0.9-1.8-1.7-3.2-1.7c-2.1,0-3.4,1.7-3.4,4s1.3,4,3.4,4
				C178.6,499.9,179.9,499.1,180.5,498.1z"/>
			<path id="XMLID_144_" d="M185.4,501.2v-10.6h1.6v1.7c0.9-1.1,2.1-1.9,3.5-1.9v1.7c-0.2,0-0.4-0.1-0.7-0.1c-1,0-2.4,0.8-2.9,1.7
				v7.5L185.4,501.2L185.4,501.2z"/>
			<path id="XMLID_146_" d="M192.1,495.9c0-3.1,2.2-5.6,5.2-5.6c3.2,0,5.1,2.5,5.1,5.7v0.4h-8.6c0.1,2,1.5,3.7,3.8,3.7
				c1.2,0,2.4-0.5,3.3-1.3l0.8,1.1c-1.1,1.1-2.5,1.6-4.2,1.6C194.3,501.4,192.1,499.2,192.1,495.9z M197.3,491.7
				c-2.3,0-3.4,1.9-3.5,3.5h7C200.8,493.6,199.7,491.7,197.3,491.7z"/>
			<path id="XMLID_149_" d="M204.1,499.8l0.9-1.2c0.7,0.8,2,1.5,3.5,1.5c1.6,0,2.5-0.8,2.5-1.8c0-1.2-1.3-1.5-2.7-1.8
				c-1.8-0.4-3.9-0.9-3.9-3.1c0-1.7,1.4-3.1,4-3.1c1.8,0,3.1,0.7,3.9,1.5l-0.8,1.1c-0.6-0.8-1.8-1.3-3.2-1.3c-1.5,0-2.4,0.7-2.4,1.7
				s1.2,1.3,2.6,1.6c1.8,0.4,4,0.9,4,3.3c0,1.8-1.4,3.2-4.2,3.2C206.7,501.4,205.2,500.9,204.1,499.8z"/>
			<path id="XMLID_151_" d="M214.4,499.8l0.9-1.2c0.7,0.8,2,1.5,3.5,1.5c1.6,0,2.5-0.8,2.5-1.8c0-1.2-1.3-1.5-2.7-1.8
				c-1.8-0.4-3.9-0.9-3.9-3.1c0-1.7,1.4-3.1,4-3.1c1.8,0,3.1,0.7,3.9,1.5l-0.8,1.1c-0.6-0.8-1.8-1.3-3.2-1.3c-1.5,0-2.4,0.7-2.4,1.7
				s1.2,1.3,2.6,1.6c1.8,0.4,4,0.9,4,3.3c0,1.8-1.4,3.2-4.2,3.2C216.9,501.4,215.5,500.9,214.4,499.8z"/>
		</g>
		<g id="XMLID_3_">
			<path id="XMLID_5_" d="M369.4,468.1l1.1-1.4c1,1.1,2.6,2.1,4.6,2.1c2.6,0,3.5-1.4,3.5-2.5c0-1.8-1.8-2.2-3.7-2.8
				c-2.4-0.6-5-1.3-5-4.2c0-2.4,2.2-4.1,5-4.1c2.2,0,4,0.7,5.2,2l-1.1,1.3c-1.1-1.2-2.6-1.8-4.2-1.8c-1.8,0-3,0.9-3,2.3
				c0,1.5,1.7,1.9,3.6,2.4c2.4,0.6,5.1,1.4,5.1,4.5c0,2.1-1.5,4.3-5.4,4.3C372.5,470.4,370.6,469.4,369.4,468.1z"/>
			<path id="XMLID_21_" d="M384.8,468.5v5.7h-1.7v-14.7h1.7v1.6c0.8-1.1,2.1-1.8,3.6-1.8c2.8,0,4.7,2.1,4.7,5.6
				c0,3.4-1.9,5.6-4.7,5.6C386.9,470.4,385.6,469.7,384.8,468.5z M391.4,464.8c0-2.4-1.3-4.1-3.4-4.1c-1.3,0-2.6,0.8-3.2,1.7v4.8
				c0.6,0.9,1.9,1.7,3.2,1.7C390.1,468.9,391.4,467.2,391.4,464.8z"/>
			<path id="XMLID_72_" d="M395.7,470.1v-10.6h1.6v1.7c0.9-1.1,2.1-1.9,3.5-1.9v1.7c-0.2,0-0.4-0.1-0.7-0.1c-1,0-2.4,0.8-2.9,1.7
				v7.5L395.7,470.1L395.7,470.1z"/>
			<path id="XMLID_78_" d="M402.7,456.9c0-0.6,0.5-1.1,1.1-1.1s1.1,0.5,1.1,1.1s-0.5,1.1-1.1,1.1S402.7,457.5,402.7,456.9z
				 M403,470.1v-10.6h1.6v10.6H403z"/>
			<path id="XMLID_81_" d="M415.1,470.1v-7c0-1.9-0.9-2.5-2.4-2.5c-1.3,0-2.5,0.8-3.1,1.7v7.8h-1.7v-10.6h1.7v1.5
				c0.7-0.9,2.2-1.8,3.8-1.8c2.2,0,3.4,1.1,3.4,3.4v7.5H415.1z"/>
			<path id="XMLID_83_" d="M420.4,467.9v-7h-1.8v-1.5h1.8v-2.9h1.7v2.9h2.2v1.5H422v6.6c0,0.8,0.4,1.4,1.1,1.4
				c0.5,0,0.9-0.2,1.1-0.4l0.5,1.2c-0.4,0.4-1,0.7-2,0.7C421.2,470.4,420.4,469.5,420.4,467.9z"/>
			<path id="XMLID_85_" d="M359.6,496.5v-14.7h5.9c2.9,0,4.6,2,4.6,4.4s-1.7,4.4-4.6,4.4h-4.1v5.8h-1.8V496.5z M368.2,486.3
				c0-1.7-1.2-2.8-2.9-2.8h-3.9v5.6h3.9C367,489.1,368.2,487.9,368.2,486.3z"/>
			<path id="XMLID_88_" d="M372.4,496.5v-14.7h1.7v14.7H372.4z"/>
			<path id="XMLID_90_" d="M384,496.5v-1.2c-0.9,1-2.1,1.5-3.5,1.5c-1.8,0-3.7-1.2-3.7-3.5c0-2.4,1.9-3.5,3.7-3.5
				c1.5,0,2.7,0.5,3.5,1.5v-1.9c0-1.4-1.1-2.2-2.7-2.2c-1.3,0-2.3,0.5-3.3,1.5l-0.8-1.1c1.1-1.2,2.5-1.8,4.2-1.8
				c2.2,0,4.1,1,4.1,3.6v7.3H384V496.5z M384,494.3v-2c-0.6-0.9-1.8-1.3-2.9-1.3c-1.5,0-2.6,1-2.6,2.3s1.1,2.3,2.6,2.3
				C382.3,495.6,383.4,495.2,384,494.3z"/>
			<path id="XMLID_93_" d="M396.1,496.5v-7c0-1.9-0.9-2.5-2.4-2.5c-1.3,0-2.5,0.8-3.1,1.7v7.8H389v-10.6h1.7v1.5
				c0.7-0.9,2.2-1.8,3.8-1.8c2.2,0,3.4,1.1,3.4,3.4v7.5H396.1z"/>
			<path id="XMLID_95_" d="M408.3,496.5v-7c0-1.9-0.9-2.5-2.4-2.5c-1.3,0-2.5,0.8-3.1,1.7v7.8h-1.6v-10.6h1.6v1.5
				c0.7-0.9,2.2-1.8,3.8-1.8c2.2,0,3.4,1.1,3.4,3.4v7.5H408.3z"/>
			<path id="XMLID_97_" d="M412.9,483.3c0-0.6,0.5-1.1,1.1-1.1s1.1,0.5,1.1,1.1s-0.5,1.1-1.1,1.1
				C413.4,484.4,412.9,483.9,412.9,483.3z M413.2,496.5v-10.6h1.6v10.6H413.2z"/>
			<path id="XMLID_100_" d="M425.3,496.5v-7c0-1.9-0.9-2.5-2.4-2.5c-1.3,0-2.5,0.8-3.1,1.7v7.8h-1.7v-10.6h1.7v1.5
				c0.7-0.9,2.2-1.8,3.8-1.8c2.2,0,3.4,1.1,3.4,3.4v7.5H425.3z"/>
			<path id="XMLID_102_" d="M430.3,499.3l0.8-1.2c0.9,1.1,1.9,1.5,3.5,1.5c1.8,0,3.4-0.9,3.4-3.2v-1.5c-0.8,1.1-2.1,1.9-3.6,1.9
				c-2.8,0-4.7-2.1-4.7-5.5s1.9-5.5,4.7-5.5c1.4,0,2.7,0.7,3.6,1.9v-1.6h1.6v10.3c0,3.5-2.5,4.6-5.1,4.6
				C432.7,500.8,431.5,500.5,430.3,499.3z M438,493.5v-4.6c-0.6-0.9-1.8-1.7-3.2-1.7c-2.1,0-3.4,1.7-3.4,4s1.3,4,3.4,4
				C436.1,495.2,437.4,494.4,438,493.5z"/>
		</g>
	</g>
	<g id="Layer_6">
		<g id="XMLID_65_">
			<g id="XMLID_66_">
				<path id="XMLID_67_" fill="#CBDB7C" d="M412.3,310.3h-2.6c-0.3,0-0.3-0.4-0.3-0.4v-1.3c0-1.7-1.4-3.1-3.1-3.1h-21.5
					c-0.1,0-0.3-0.3-0.6-0.9c0-0.1-0.1-0.2-0.1-0.3c-1.1-2.1-2.5-2.5-3.5-2.5H375c-1.4,0-2.3,0.8-3.3,2.4c-0.1,0.1-0.1,0.2-0.2,0.3
					c-0.3,0.5-0.6,0.9-0.7,0.9H369c-1.7,0-3.1,1.4-3.1,3.1v26.1c0,1.5,1.1,2.8,2.6,3.1c0.2,0.1,0.4,0.1,0.6,0.1h38.3
					c1,0,2-0.8,2.2-1.9l4.2-23.8C414,311.1,413.3,310.3,412.3,310.3L412.3,310.3z M369,307.9h1.6c1.6,0,2.4-1.3,2.9-2.2
					c0.1-0.1,0.1-0.2,0.2-0.3c0.5-0.8,0.9-1.2,1.4-1.2h5.3c0.2,0,0.7,0,1.3,1.2c0,0.1,0.1,0.2,0.1,0.2c0.5,0.9,1.2,2.3,2.9,2.3h21.5
					c0.3,0,0.6,0.3,0.6,0.6v1.3c0,0,0,0.5-0.3,0.5h-32.7c-1,0-2,0.8-2.2,1.9l-3.2,17.7c0,0-0.2,0.6-0.2-0.5v-20.8
					C368.4,308.2,368.7,307.9,369,307.9L369,307.9z"/>
			</g>
		</g>
		<g id="XMLID_36_">
			<g id="XMLID_228_">
				<path id="XMLID_246_" fill="#8ED3D4" d="M190.2,325.3c0,0.4-0.4,0.8-0.8,0.8h-26.9c-0.4,0-0.8-0.4-0.8-0.8v-0.5
					c0-0.4,0.4-0.8,0.8-0.8h26.9c0.4,0,0.8,0.4,0.8,0.8V325.3z"/>
				<path id="XMLID_243_" fill="#8ED3D4" d="M173.7,303.2c0,0.4-0.4,0.8-0.8,0.8h-10.4c-0.4,0-0.8-0.4-0.8-0.8v-0.5
					c0-0.4,0.4-0.8,0.8-0.8h10.4c0.4,0,0.8,0.4,0.8,0.8V303.2z"/>
				<path id="XMLID_240_" fill="#8ED3D4" d="M189.8,332.6c0,0.4-0.4,0.8-0.8,0.8h-10.4c-0.4,0-0.8-0.4-0.8-0.8v-0.5
					c0-0.4,0.4-0.8,0.8-0.8H189c0.4,0,0.8,0.4,0.8,0.8V332.6z"/>
				<path id="XMLID_237_" fill="#8ED3D4" d="M179.3,310.6c0,0.4-0.4,0.8-0.8,0.8h-16c-0.4,0-0.8-0.4-0.8-0.8v-0.5
					c0-0.4,0.4-0.8,0.8-0.8h16c0.4,0,0.8,0.4,0.8,0.8V310.6z"/>
				<path id="XMLID_234_" fill="#8ED3D4" d="M190.2,317.9c0,0.4-0.4,0.8-0.8,0.8h-26.9c-0.4,0-0.8-0.4-0.8-0.8v-0.5
					c0-0.4,0.4-0.8,0.8-0.8h26.9c0.4,0,0.8,0.4,0.8,0.8V317.9z"/>
				<path id="XMLID_229_" fill="#8ED3D4" d="M195.2,304.8l-12.9-10.6c-1.1-0.9-2.9-1.5-4.3-1.5h-20.3c-1.8,0-3.2,1.4-3.2,3.2v43.6
					c0,3.3,3.1,3.3,3.2,3.3H194c1.8,0,3.2-1.4,3.2-3.2V309C197.2,307.5,196.4,305.7,195.2,304.8L195.2,304.8z M181.5,297.4
					c0-0.8,0.6-0.2,0.6-0.2l10.2,8.7c0,0,0.7,0.6-0.5,0.6h-9.6c-0.5,0-0.8-0.4-0.8-0.8v-8.3H181.5z M194,340.3h-36.5
					c-0.1,0-0.6,0-0.6-0.7v-43.8c0-0.4,0.4-0.8,0.8-0.8H178c0.3,0,1.1,0.2,1.1,1.2v9.6c0,1.8,1.4,3.2,3.2,3.2h12
					c0.2,0,0.6,0.2,0.6,0.7v29.9C194.9,339.9,194.5,340.3,194,340.3L194,340.3z"/>
			</g>
		</g>
		<g id="XMLID_57_">
			<g id="XMLID_61_">
				<path id="XMLID_62_" fill="#F4D173" d="M403.4,543.5c-0.7,0.7-1.8,0.8-2.6,0.2l-12.4-9.2c-0.8-0.6-0.9-1.7-0.4-2.5l1.6-2.1
					c0.6-0.8,1.7-0.9,2.5-0.4l8,5.8c0.8,0.6,2,0.5,2.6-0.3l17.8-19.1c0.7-0.7,1.8-0.8,2.5-0.1l1.9,1.8c0.7,0.7,0.8,1.8,0.1,2.5
					L403.4,543.5z"/>
			</g>
			<path id="XMLID_58_" fill="#F4D173" d="M416.4,535.8v10.4c0,1.5-1.2,2.7-2.7,2.7H380c-1.5,0-2.7-1.2-2.7-2.7v-32.5
				c0-1.5,1.2-2.7,2.7-2.7h33.7c1.5,0,2.7,1.2,2.7,2.7v1.6c0,1,0.7,0.2,0.7,0.2s1.4-1.3,1.7-1.6c0.1-0.1,0.5-0.4,0.5-1v-2.1
				c0-1.5-1.2-2.7-2.7-2.7h-39.5c-1.5,0-2.7,1.2-2.7,2.7v38.3c0,1.5,1.2,2.7,2.7,2.7h39.5c1.5,0,2.7-1.2,2.7-2.7v-16.4
				c0-0.8-0.6-0.1-0.6-0.1s-1.2,1.4-1.8,1.9C416.6,534.8,416.4,535.1,416.4,535.8L416.4,535.8z"/>
		</g>
		<g id="XMLID_34_">
			<path id="XMLID_75_" fill="#E88272" d="M191.9,549.7c0,0.8-0.2,1.4-1.2,1.4h-35.2c-1,0-1.8-0.8-1.8-1.8v-33.1
				c0-1,0.6-1.2,1.4-1.2c0.8,0,1.4,0.2,1.4,1.2v30.3c0,1,0.8,1.8,1.8,1.8h32.3C191.7,548.2,191.9,548.9,191.9,549.7L191.9,549.7z"/>
			<path id="XMLID_35_" fill="#E88272" d="M188.5,527.3c0.4,0.3,0.7,0.1,0.7-0.4l-0.7-7.6c0-0.5-0.5-0.7-0.9-0.6l-7.2,2.7
				c-0.5,0.2-0.5,0.5-0.1,0.8l1.3,0.8c0.4,0.3,0.5,0.8,0.3,1.2l-5.4,8.2c-0.3,0.4-0.9,0.6-1.3,0.4l-8.4-3.2c-0.5-0.2-1.1,0-1.4,0.4
				l-5.3,6.4c-0.3,0.4-0.6,1.1-0.6,1.6v5.2c0,0.5,0.3,0.6,0.6,0.2l6.8-8c0.3-0.4,1-0.5,1.4-0.4l8.5,3.2c0.5,0.2,1.1,0,1.3-0.4
				l7.6-11.4c0.3-0.4,0.8-0.5,1.2-0.3L188.5,527.3z"/>
		</g>
	</g>
</g>
<g id="Layer_7">
	<g id="XMLID_443_">
		<polygon id="XMLID_444_" fill="#8ED3D4" points="323.4,129.2 305.6,139.5 287.7,149.8 287.7,129.2 287.7,108.7 305.6,118.9 		"/>
		<path id="XMLID_445_" fill="#8ED3D4" d="M287.8,157.8c-1.4,0-2.8-0.4-4-1.1c-2.5-1.4-4-4.1-4-6.9v-41.1c0-2.9,1.5-5.5,4-6.9
			c2.5-1.4,5.5-1.4,8,0l35.6,20.6c2.5,1.4,4,4.1,4,6.9c0,2.8-1.5,5.5-4,6.9l-35.6,20.6C290.5,157.4,289.1,157.8,287.8,157.8z
			 M295.8,122.5v13.4l11.6-6.7L295.8,122.5z"/>
	</g>
	<g id="XMLID_442_">
		<polygon id="XMLID_32_" fill="#CBDB7C" points="556.8,433.1 546.1,414.6 535.4,396.1 556.8,396.1 578.2,396.1 567.5,414.6 		"/>
		<path id="XMLID_439_" fill="#CBDB7C" d="M556.8,441.1c-2.9,0-5.5-1.5-6.9-4l-21.5-37c-1.4-2.5-1.4-5.5,0-8s4.1-4,6.9-4h42.8
			c2.9,0,5.5,1.5,6.9,4s1.4,5.5,0,8l-21.3,37C562.3,439.6,559.6,441.1,556.8,441.1z M549.2,404.1l7.6,13.1l7.6-13.1H549.2z"/>
	</g>
	<g id="XMLID_438_">
		<polygon id="XMLID_9_" fill="#F4D173" points="256.9,665.2 274.8,654.9 292.8,644.5 292.8,665.2 292.8,686 274.8,675.6 		"/>
		<path id="XMLID_31_" fill="#F4D173" d="M292.8,694c-1.4,0-2.8-0.4-4-1.1l-35.9-20.7c-2.5-1.4-4-4.1-4-6.9s1.5-5.5,4-6.9l35.9-20.7
			c2.5-1.4,5.5-1.4,8,0s4,4.1,4,6.9v41.5c0,2.9-1.5,5.5-4,6.9C295.5,693.6,294.2,694,292.8,694z M272.9,665.2l11.9,6.9v-13.8
			L272.9,665.2z"/>
	</g>
	<g id="XMLID_8_">
		<polygon id="XMLID_1_" fill="#E88272" points="20.9,361.9 30.9,379.3 40.9,396.6 20.9,396.6 0.9,396.6 10.9,379.3 		"/>
		<path id="XMLID_2_" fill="#E88272" d="M40.9,404.6h-40c-2.9,0-5.5-1.5-6.9-4s-1.4-5.5,0-8L14,358c1.4-2.5,4.1-4,6.9-4
			s5.5,1.5,6.9,4l20,34.6c1.4,2.5,1.4,5.5,0,8S43.7,404.6,40.9,404.6z M14.7,388.6H27L20.9,378L14.7,388.6z"/>
	</g>
</g>
</svg>
