<svg version="1.1"  id="home-icon" xmlns="http://www.w3.org/2000/svg" xmlns:xlink="http://www.w3.org/1999/xlink" x="0px" y="0px"
	 viewBox="0 0 20 20" enable-background="new 0 0 20 20" xml:space="preserve">
	<path d="M19.7,10.2l-9.1-9.1c-0.2-0.2-0.4-0.3-0.7-0.3c-0.3,0-0.5,0.1-0.7,0.3l-8.8,9.2C0.1,10.6,0,11,0.2,11.4
		C0.3,11.8,0.7,12,1.1,12H3v6c0,0.6,0.4,1,1,1h4v-2H5v-6c0-0.6-0.4-1-1-1H3.4l6.5-6.8l6.8,6.8H16c-0.6,0-1,0.4-1,1v6h-3v2h4
		c0.6,0,1-0.4,1-1v-6h2.1c0,0,0,0,0,0c0.6,0,1-0.4,1-1C20.1,10.7,19.9,10.4,19.7,10.2z"/>
</svg>
