<svg version="1.1" id="integrations" xmlns="http://www.w3.org/2000/svg" xmlns:xlink="http://www.w3.org/1999/xlink" x="0px" y="0px"
	 viewBox="0 0 24 24" style="enable-background:new 0 0 24 24;" xml:space="preserve">
<g id="XMLID_2_">
	<path stroke="none" id="XMLID_9_" d="M6,24H2.9C1.5,24,0,22.6,0,21.3V18h1v3.3C1,22,2.1,23,2.9,23H6V24z"/>
</g>
<g id="XMLID_1_">
	<path stroke="none" id="XMLID_8_" d="M24,6h-1V2.3C23,1.5,22.4,1,21.6,1H19V0h2.6C23,0,24,0.9,24,2.3V6z"/>
</g>
<g id="XMLID_4_">
	<path stroke="none" id="XMLID_7_" d="M1,6H0V2.9C0,1.5,1.4,0,2.8,0H6v1H2.8C2,1,1,2.1,1,2.9V6z"/>
</g>
<g id="XMLID_3_">
	<path stroke="none" id="XMLID_6_" d="M21.8,24H18v-1h3.8c0.7,0,1.3-0.6,1.3-1.4V19h1v2.6C24,23,23.1,24,21.8,24z"/>
</g>
<g id="XMLID_5_">
	<path stroke="none" id="XMLID_11_" d="M15.7,18.6H8.3c-1.6,0-2.8-1.3-2.8-2.8V8.3c0-1.6,1.3-2.8,2.8-2.8h7.5c1.6,0,2.8,1.3,2.8,2.8v7.5
		C18.6,17.3,17.3,18.6,15.7,18.6z M8.3,6.6c-0.9,0-1.7,0.8-1.7,1.7v7.5c0,0.9,0.8,1.7,1.7,1.7h7.5c0.9,0,1.7-0.8,1.7-1.7V8.3
		c0-0.9-0.8-1.7-1.7-1.7H8.3z"/>
</g>
<g id="XMLID_14_">
	<rect stroke="none" id="XMLID_21_" x="19.6" y="0.4" transform="matrix(0.6898 0.724 -0.724 0.6898 9.1521 -13.2963)" width="1" height="7.3"/>
</g>
<g id="XMLID_10_">
	<rect stroke="none" id="XMLID_20_" x="3.6" y="16.4" transform="matrix(0.6893 0.7245 -0.7245 0.6893 15.7842 3.2585)" width="1" height="7.3"/>
</g>
<g id="XMLID_16_">
	
		<rect stroke="none" id="XMLID_19_" x="16.4" y="19.5" transform="matrix(0.6899 0.7239 -0.7239 0.6899 20.7306 -8.3337)" width="7.3" height="1"/>
</g>
<g id="XMLID_15_">
	<rect stroke="none" id="XMLID_18_" x="0.4" y="3.5" transform="matrix(0.6899 0.7239 -0.7239 0.6899 4.1886 -1.7125)" width="7.3" height="1"/>
</g>
</svg>
