<svg enable-background="new 0 0 96 96" id="member" version="1.1" viewBox="0 0 96 96" xml:space="preserve" xmlns="http://www.w3.org/2000/svg" xmlns:xlink="http://www.w3.org/1999/xlink"><path stroke="none" d="M72,48h-6c-1.654,0-3-1.346-3-3v-0.332c3.706-3.788,6-8.963,6-14.668c0-11.579-9.42-21-21-21s-21,9.421-21,21  c0,5.706,2.294,10.881,6,14.669V45c0,1.654-1.346,3-3,3h-6c-8.271,0-15,6.729-15,15v21c0,1.657,1.343,3,3,3h72c1.657,0,3-1.343,3-3  V63C87,54.729,80.271,48,72,48z M33,30L33,30c9.646,0,14.967-2.384,17.793-4.503C53.012,27.608,56.877,30,63,30l0,0  c0,8.271-6.729,15-15,15C39.729,45,33,38.271,33,30L33,30z M81,81H15V63c0-4.963,4.038-9,9-9h6c3.688,0,6.863-2.232,8.251-5.416  C41.167,50.12,44.481,51,48,51c3.52,0,6.833-0.88,9.749-2.417C59.137,51.768,62.311,54,66,54h6c4.962,0,9,4.037,9,9V81z"/></svg>