<svg version="1.1" id="race" xmlns="http://www.w3.org/2000/svg" xmlns:xlink="http://www.w3.org/1999/xlink" x="0px" y="0px"
	 viewBox="0 0 24 24" style="enable-background:new 0 0 24 24;" xml:space="preserve">
<g id="XMLID_2_">
	<path stroke="none" id="XMLID_3_" d="M2.7,5.4V23c0,0.3-0.2,0.4-0.4,0.4H1.3c-0.3,0-0.4-0.2-0.4-0.4V5.4C0.4,5.1,0,4.6,0,3.9c0-1,0.8-1.8,1.8-1.8
		s1.8,0.8,1.8,1.8C3.6,4.6,3.2,5.1,2.7,5.4z M24,15.4c0,0.3-0.2,0.6-0.5,0.8c-0.1,0-0.1,0.1-0.2,0.1c-0.9,0.5-3,1.6-5.1,1.6
		c-0.8,0-1.6-0.2-2.2-0.5l-0.4-0.2c-1.4-0.7-2.5-1.3-4.2-1.3c-2,0-4.8,1-6.4,2c-0.1,0.1-0.3,0.1-0.5,0.1c-0.2,0-0.3,0-0.4-0.1
		c-0.3-0.2-0.4-0.5-0.4-0.8V6.9c0-0.3,0.2-0.6,0.4-0.8c0.9-0.5,4-2.3,6.9-2.3c2.3,0,4.2,0.8,5.8,1.6c0.4,0.2,0.8,0.3,1.2,0.3
		c1.6,0,3.4-1,4.3-1.6c0.2-0.1,0.3-0.2,0.4-0.2c0.3-0.1,0.6-0.1,0.9,0C23.8,4.2,24,4.5,24,4.8V15.4z M22.2,6.3
		c-1.1,0.6-2.7,1.3-4.3,1.3c-0.7,0-1.4-0.1-2-0.4c-1.5-0.7-3.1-1.4-5-1.4c-1.8,0-4,0.9-5.6,1.8v8.3c1.8-0.8,4.2-1.6,6-1.6
		c2.1,0,3.5,0.7,5,1.4l0.4,0.2c0.4,0.2,0.9,0.3,1.4,0.3c1.5,0,3.2-0.8,4.1-1.3V6.3z"/>
</g>
</svg>
