
<svg version="1.1" id="recycle-icon" xmlns="http://www.w3.org/2000/svg" xmlns:xlink="http://www.w3.org/1999/xlink" x="0px" y="0px"
	 viewBox="0 0 16 16" style="enable-background:new 0 0 16 16;" xml:space="preserve">
<g id="XMLID_1_">
	<path stroke="none" id="XMLID_13_" d="M10.6,16H5.4C4.1,16,3,14.9,3,13.6V5.4C3,4.1,4.1,3,5.4,3h5.3C11.9,3,13,4.1,13,5.4v8.2
		C13,14.9,11.9,16,10.6,16z M5.4,4.6c-0.4,0-0.8,0.4-0.8,0.8v8.2c0,0.4,0.4,0.8,0.8,0.8h5.3c0.4,0,0.8-0.4,0.8-0.8V5.4
		c0-0.4-0.4-0.8-0.8-0.8H5.4z"/>
</g>
<g id="XMLID_3_">
	<path stroke="none" id="XMLID_12_" d="M6,13c-0.6,0-1-0.4-1-1V7c0-0.6,0.4-1,1-1s1,0.4,1,1v5C7,12.6,6.6,13,6,13z"/>
</g>
<g id="XMLID_2_">
	<path stroke="none" id="XMLID_11_" d="M10,13c-0.6,0-1-0.4-1-1V7c0-0.6,0.4-1,1-1s1,0.4,1,1v5C11,12.6,10.6,13,10,13z"/>
</g>
<g id="XMLID_4_">
	<path stroke="none" id="XMLID_8_" d="M9.7,5H6.1C4.9,5,3.9,4,3.9,2.8V2.2C3.9,1,4.9,0,6.1,0h3.6c1.2,0,2.2,1,2.2,2.2v0.6C11.9,4,10.9,5,9.7,5z
		 M6.1,2C6,2,5.9,2.1,5.9,2.2v0.6C5.9,2.9,6,3,6.1,3h3.6c0.1,0,0.2-0.1,0.2-0.2V2.2C9.9,2.1,9.8,2,9.7,2H6.1z"/>
</g>
<g id="XMLID_6_">
	<path stroke="none" id="XMLID_7_" d="M14,5H2C1.4,5,1,4.6,1,4s0.4-1,1-1h12c0.6,0,1,0.4,1,1S14.6,5,14,5z"/>
</g>
</svg>
