<svg version="1.1" id="roadmap" xmlns="http://www.w3.org/2000/svg" xmlns:xlink="http://www.w3.org/1999/xlink" x="0px" y="0px"
	 viewBox="0 0 20 20" style="enable-background:new 0 0 20 20;" xml:space="preserve">
<path stroke="none" id="XMLID_17_" d="M19,7.6L12.4,1c-1.3-1.3-3.4-1.3-4.7,0L1,7.6c-1.3,1.3-1.3,3.4,0,4.7L7.6,19h0c0.6,0.6,1.5,1,2.4,1
	c0.9,0,1.7-0.3,2.4-1l6.7-6.7c0.6-0.6,1-1.5,1-2.4S19.7,8.3,19,7.6z M10,14c-0.9,0-0.9,0-1.6,0c0-1.2,0.2-2.1,0.5-3l1.3,0.5
	C10.1,12.2,10,13,10,14z M10.4,10.8l-1.2-0.4c0.5-1.2,1.3-2.1,2-2.7l0.7,0.6C11.3,8.8,10.7,9.6,10.4,10.8z M11.6,7.2
	c0.7-0.6,1.3-0.9,1.3-0.9l0.5,0.5c0,0-0.5,0.3-1.2,0.9L11.6,7.2z M13,13.7c-1.8-3.7,0.8-6.5,0.8-6.5l-1.4-1.4c0,0-6.9,2.5-6.9,6.4
	L3.3,10L10,3.3l6.7,6.7L13,13.7z"/>
</svg>
