<svg version="1.1" id="rooms" xmlns="http://www.w3.org/2000/svg" xmlns:xlink="http://www.w3.org/1999/xlink" x="0px" y="0px"
	 viewBox="-1 3 16 16" enable-background="new -1 3 16 16" xml:space="preserve">
<path stroke="none" d="M10,4H4C1.8,4,0,5.8,0,8v6c0,0.4,0.1,0.7,0.1,1L2,13.2V8c0-1.1,0.9-2,2-2h6c1.1,0,2,0.9,2,2v6c0,1.1-0.9,2-2,2H4.8L3,17.9
	C3.3,17.9,3.6,18,4,18h6c2.2,0,4-1.8,4-4V8C14,5.8,12.2,4,10,4z"/>
<path stroke="none" d="M8,13H6c-0.5,0-1-0.4-1-1v-2c0-0.6,0.5-1,1-1h2c0.5,0,1,0.4,1,1v2C9,12.6,8.6,13,8,13z"/>
</svg>
