<?xml version="1.0" encoding="utf-8"?>
<!-- Generator: Adobe Illustrator 18.1.1, SVG Export Plug-In . SVG Version: 6.00 Build 0)  -->
<!DOCTYPE svg PUBLIC "-//W3C//DTD SVG 1.1//EN" "http://www.w3.org/Graphics/SVG/1.1/DTD/svg11.dtd">
<svg version="1.1" id="Layer_1" xmlns="http://www.w3.org/2000/svg" xmlns:xlink="http://www.w3.org/1999/xlink" x="0px" y="0px"
	 viewBox="0 0 16 16" enable-background="new 0 0 16 16" xml:space="preserve">
<g>
	<path stroke="none" fill="#60606a" d="M9.8,1.5C9.8,1.5,9.8,1.5,9.8,1.5c-0.1,0-1.5-0.2-1.5-0.2c-0.1,0-0.2,0-0.2,0C6.8,1.3,5.7,1.5,4.7,2C4.6,2,3.5,2.7,3.4,2.7
		C3.1,3,2.8,3.2,2.5,3.5S1.9,4,1.7,4.3C1.5,4.5,1.4,4.7,1.3,5C1.2,5.1,1.1,5.2,1.1,5.3C1,5.4,0.9,5.5,0.9,5.6C0.8,5.7,0.8,5.9,0.7,6
		C0.7,6.1,0.6,6.2,0.6,6.3C0.5,6.6,0.4,6.8,0.3,7.1c0,0.1,0,0.1-0.1,0.2C0.2,7.5,0.1,7.8,0.1,8.1C0,8.5,0,8.9,0,9.3
		c0,0.5,0,1,0.1,1.4c0,0.1,0.1,0.3,0.1,0.4c0,0.1,0,0.1,0,0.2c0,0.1,0.1,0.3,0.1,0.4c0,0.1,0.1,0.2,0.1,0.4c0.1,0.1,0.1,0.3,0.2,0.4
		c0,0.1,0.1,0.2,0.1,0.3C0.9,13,1,13.2,1.2,13.4c0,0.1,0.1,0.1,0.1,0.2c0.1,0.1,0.1,0.2,0.2,0.3c0.1,0.1,0.1,0.2,0.2,0.2
		c0.1,0.1,0.1,0.1,0.2,0.2c0.1,0.1,0.2,0.2,0.3,0.4c0,0,0.1,0.1,0.1,0.1c0,0,0,0,0.1,0.1l0,0v0l3.2-3.2c-0.2-0.2-0.3-0.3-0.4-0.5
		C5,11.2,5,11.1,4.9,11c-0.1-0.1-0.1-0.2-0.1-0.3c-0.2-0.4-0.3-0.9-0.3-1.4c0-0.9,0.3-1.6,0.8-2.2c0,0,0.1-0.1,0.1-0.1
		c0.1-0.1,0.2-0.2,0.4-0.4c0,0,0.1-0.1,0.1-0.1C6,6.3,6.2,6.3,6.3,6.2C6.8,5.9,7.4,5.7,8,5.7c0.1,0,0.1,0,0.2,0c0,0,0,0,0.1,0
		c0.1,0,0.1,0,0.2,0c0,0,0,0,0,0c0.1,0,0.1,0,0.2,0c0,0,0,0,0,0c0.1,0,0.1,0,0.2,0l0,0c1.5,0.4,2.7,1.8,2.7,3.4c0,1-0.4,1.9-1,2.5
		l3.2,3.2c1.4-1.4,2.3-3.4,2.3-5.7C16,5.5,13.3,2.3,9.8,1.5z M13.6,14.1l-2.4-2.4c0.5-0.7,0.8-1.6,0.8-2.5c0-1.9-1.3-3.5-3.1-4
		l0.9-3.3c3.2,0.8,5.6,3.8,5.6,7.2C15.5,11.1,14.8,12.8,13.6,14.1z"/>
	<g>
		<path stroke="none" fill="#60606a" d="M6.1,9.1c0-0.3,0-0.6,0.1-0.8c0.1-0.2,0.2-0.4,0.4-0.5c0.2-0.1,0.4-0.2,0.7-0.2c0.1,0,0.2,0,0.4,0v0.5c-0.1,0-0.2,0-0.4,0
			c-0.2,0-0.4,0-0.5,0.1C6.8,8.4,6.7,8.6,6.7,8.8h0C6.8,8.6,7,8.5,7.2,8.5c0.2,0,0.4,0.1,0.5,0.2c0.1,0.1,0.2,0.3,0.2,0.6
			c0,0.3-0.1,0.5-0.2,0.6c-0.2,0.2-0.4,0.2-0.6,0.2c-0.3,0-0.5-0.1-0.7-0.3C6.2,9.7,6.1,9.4,6.1,9.1z M7,9.7c0.1,0,0.1,0,0.2-0.1
			c0-0.1,0.1-0.1,0.1-0.3C7.3,9.1,7.2,9,7,9C7,9,6.9,9,6.9,9.1c0,0.1-0.1,0.1-0.1,0.2c0,0.1,0,0.2,0.1,0.3C6.9,9.6,7,9.7,7,9.7z"/>
		<path stroke="none" fill="#60606a" d="M9.9,8.9c0,0.4-0.1,0.8-0.2,1c-0.1,0.2-0.4,0.3-0.7,0.3c-0.3,0-0.5-0.1-0.7-0.3C8.2,9.7,8.2,9.3,8.2,8.9
			c0-0.4,0.1-0.8,0.2-1C8.5,7.7,8.7,7.6,9,7.6c0.3,0,0.5,0.1,0.7,0.3C9.9,8.2,9.9,8.5,9.9,8.9z M8.8,8.9c0,0.3,0,0.5,0.1,0.6
			C8.9,9.6,9,9.6,9,9.6c0.1,0,0.1-0.1,0.2-0.2c0-0.1,0.1-0.3,0.1-0.6c0-0.3,0-0.5-0.1-0.6c0-0.1-0.1-0.2-0.2-0.2
			C9,8.2,8.9,8.2,8.9,8.3C8.8,8.4,8.8,8.6,8.8,8.9z"/>
	</g>
</g>
</svg>
