<svg version="1.1" id="story" xmlns="http://www.w3.org/2000/svg" xmlns:xlink="http://www.w3.org/1999/xlink" x="0px" y="0px"
	 viewBox="0 0 20 20" style="enable-background:new 0 0 20 20;" xml:space="preserve">
<rect x="4.2" fill="#9EBD10" width="15.8" height="20"/>
<path fill="#E3E8C9" d="M16.4,4.7H8.1C7.6,4.7,7.3,5,7.3,5.5v0.3c0,0.5,0.4,0.8,0.8,0.8h8.3c0.5,0,0.8-0.4,0.8-0.8V5.5
	C17.3,5,16.9,4.7,16.4,4.7z"/>
<path fill="#E3E8C9" d="M16.4,8.7H8.1C7.6,8.7,7.3,9,7.3,9.5v0.3c0,0.5,0.4,0.8,0.8,0.8h8.3c0.5,0,0.8-0.4,0.8-0.8V9.5
	C17.3,9,16.9,8.7,16.4,8.7z"/>
<path fill="#E3E8C9" d="M10.4,12.7H8.1c-0.5,0-0.8,0.4-0.8,0.8v0.3c0,0.5,0.4,0.8,0.8,0.8h2.3c0.5,0,0.8-0.4,0.8-0.8v-0.3
	C11.3,13,10.9,12.7,10.4,12.7z"/>
<polygon fill="#677B0A" points="20,12.7 13.3,12.7 13.3,20 "/>
<polygon fill="#E3E8C9" points="13.3,20 20,20 20,12.7 "/>
</svg>
