<svg version="1.1" id="strategictheme-icon" class="strategictheme-icon" xmlns="http://www.w3.org/2000/svg" xmlns:xlink="http://www.w3.org/1999/xlink" x="0px" y="0px"
	 viewBox="0 0 16 16" enable-background="new 0 0 16 16" xml:space="preserve">
	<path d="M13.6,16H3.3l-0.1-0.3c-0.3-1-0.2-1.4,0.3-2c-0.3-0.9-0.1-1.8,0.7-2.5c0.3-0.3,0.6-0.5,0.9-0.7c0.3-0.2,0.6-0.4,0.8-0.7
		C6.7,9.3,7.2,8.7,7.5,8c0,0,0-0.1,0.1-0.1C7.3,8.1,7,8.2,6.7,8.3c-0.3,0-0.7,0-1,0C5,8.1,4.6,8.2,4.2,8.5C4.1,8.6,3.9,8.7,3.8,8.8
		L3.6,8.9C3.2,9.1,2.8,9.1,2.5,8.7L2.2,8.4C2,8.1,1.7,7.9,1.5,7.6C1.3,7.3,1,6.8,1.1,6.2c0.1-0.5,0.6-0.9,1-1.1
		c0.7-0.4,1.2-0.9,1.6-1.4l0.7-0.9C4.3,2.7,4.2,2.5,4.2,2.4C4,1.6,4.3,1.1,4.5,0.8c0.5-0.5,0.9-0.5,1.4,0c0.3,0.3,0.5,0.5,0.8,0.8
		c0,0,0,0,0.1,0l0.4,0c0.5,0,1-0.1,1.6,0c2.1,0.3,3.8,1.5,4.9,3.6c1.3,2.2,1.3,4.7,0.2,7.2c-0.1,0.3-0.3,0.6-0.5,1c0,0,0,0,0,0.1
		c0.3,0.3,0.6,0.7,0.6,1.1c0,0.2,0,0.4-0.1,0.5c0,0.1-0.1,0.2-0.2,0.6L13.6,16z M3.9,15h9c0.1,0,0.1-0.3,0.2-0.4
		c0-0.3-0.3-0.5-0.5-0.6l-0.5-0.2l0.3-0.5c0.1-0.2,0.2-0.3,0.3-0.4c0.2-0.3,0.3-0.6,0.5-0.9c1-2.2,1-4.4-0.1-6.4
		c-1-1.8-2.4-2.8-4.3-3.1c-0.4-0.1-0.9,0-1.4,0c-0.2,0-0.3,0-0.5,0c-0.2,0-0.5,0-0.8-0.3C5.8,2,5.6,1.7,5.3,1.5c0,0-0.1-0.1-0.1-0.1
		c0,0,0,0-0.1,0.1C5,1.6,4.9,1.8,5,2.1c0,0.1,0.1,0.3,0.2,0.4l0.2,0.4l-1,1.3C3.9,4.9,3.3,5.4,2.5,5.9C2.2,6.1,2,6.3,2,6.4
		c0,0.1,0.1,0.4,0.3,0.7c0.2,0.3,0.4,0.5,0.6,0.7l0.3,0.3L3.3,8C3.4,8,3.5,7.9,3.6,7.9c0.8-0.7,1.7-0.6,2.3-0.5c0.2,0,0.5,0.1,0.7,0
		C7,7.3,7.2,7.1,7.4,6.7c0-0.1,0-0.1,0-0.2l0.1-0.4l0.3,0c0.3,0,0.5,0.1,0.6,0.2c0.2,0.1,0.2,0.3,0.3,0.6c0,0.5-0.1,1.1-0.3,1.6
		c-0.4,0.8-1,1.5-1.8,2.1c-0.3,0.2-0.6,0.5-0.9,0.7c-0.3,0.2-0.6,0.5-0.9,0.7c-0.4,0.3-0.8,0.8-0.5,1.5c0.1,0.2,0.1,0.5-0.1,0.8l0,0
		C3.8,14.6,3.8,15,3.9,15z"/>
</svg>
