<svg version="1.1" id="video" xmlns="http://www.w3.org/2000/svg" xmlns:xlink="http://www.w3.org/1999/xlink" x="0px" y="0px"
	 viewBox="0 0 28 28" style="enable-background:new 0 0 28 28;" xml:space="preserve">
<g id="XMLID_5_">
	<path stroke="none" id="XMLID_2_" d="M5.6,26.8c-0.7,0-1.4-0.2-2-0.5c-1.3-0.8-2-2.3-2-4.3V6c0-2,0.7-3.5,2-4.3C4.9,1,6.6,1,8.3,2l15.4,8.3
		c1.7,0.9,2.7,2.3,2.7,3.7s-1,2.8-2.7,3.7L8.3,26C7.4,26.5,6.4,26.8,5.6,26.8z M5.6,3.2c-0.4,0-0.7,0.1-1,0.3C3.9,3.9,3.6,4.8,3.6,6
		v16c0,1.2,0.4,2.1,1.1,2.5s1.7,0.3,2.7-0.3L22.8,16c1.1-0.6,1.7-1.3,1.7-2s-0.6-1.4-1.7-2L7.4,3.7C6.7,3.4,6.1,3.2,5.6,3.2z"/>
</g>
</svg>
